<?xml version="1.0" encoding="utf-8"?>
<!-- Generator: Adobe Illustrator 16.0.0, SVG Export Plug-In . SVG Version: 6.00 Build 0)  -->
<!DOCTYPE svg PUBLIC "-//W3C//DTD SVG 1.1//EN" "http://www.w3.org/Graphics/SVG/1.1/DTD/svg11.dtd">
<svg version="1.1" id="Layer_1" xmlns="http://www.w3.org/2000/svg" xmlns:xlink="http://www.w3.org/1999/xlink" x="0px" y="0px"
	 width="70.489px" height="69.774px" viewBox="0 0 70.489 69.774" enable-background="new 0 0 70.489 69.774" xml:space="preserve">
<path fill-rule="evenodd" clip-rule="evenodd" fill="#FFFFFF" d="M4.344,0.687c-0.96-0.95-2.55-0.91-3.56,0.09
	c-1.01,1-1.05,2.58-0.09,3.53l30.89,30.58l-30.89,30.58c-0.96,0.95-0.92,2.53,0.09,3.53c1.01,1,2.6,1.04,3.56,0.09l30.9-30.58
	l30.89,30.58c0.96,0.95,2.56,0.91,3.57-0.09c1.01-1,1.05-2.58,0.09-3.53l-30.9-30.58l30.9-30.58c0.96-0.95,0.92-2.53-0.09-3.53
	c-1.01-1-2.61-1.04-3.57-0.09l-30.89,30.58L4.344,0.687z"/>
</svg>
