<?xml version="1.0" encoding="utf-8"?>
<!-- Generator: Adobe Illustrator 16.0.0, SVG Export Plug-In . SVG Version: 6.00 Build 0)  -->
<!DOCTYPE svg PUBLIC "-//W3C//DTD SVG 1.1//EN" "http://www.w3.org/Graphics/SVG/1.1/DTD/svg11.dtd">
<svg version="1.1" id="Layer_1" xmlns="http://www.w3.org/2000/svg" xmlns:xlink="http://www.w3.org/1999/xlink" x="0px" y="0px"
	 width="27.85px" height="27.85px" viewBox="0 0 27.85 27.85" enable-background="new 0 0 27.85 27.85" xml:space="preserve">
<circle fill="#B2B2B2" cx="13.925" cy="13.925" r="13.925"/>
<g>
	<path fill="#FFFFFF" d="M13.925,4.676c-5.1,0-9.249,4.148-9.249,9.249c0,5.099,4.149,9.248,9.249,9.248
		c5.1,0,9.249-4.149,9.249-9.248C23.174,8.824,19.025,4.676,13.925,4.676L13.925,4.676z M13.925,22.035
		c-4.472,0-8.111-3.64-8.111-8.11c0-4.472,3.64-8.111,8.111-8.111s8.111,3.64,8.111,8.111
		C22.036,18.396,18.397,22.035,13.925,22.035L13.925,22.035z M13.925,22.035"/>
	<path fill="#FFFFFF" d="M15.024,10.236c0,0.525-0.427,0.951-0.953,0.951c-0.524,0-0.951-0.426-0.951-0.951s0.427-0.952,0.951-0.952
		C14.598,9.284,15.024,9.711,15.024,10.236L15.024,10.236z M15.024,10.236"/>
	<path fill="#FFFFFF" d="M13.822,12.74c-0.314,0-0.57,0.256-0.57,0.569v4.839c0,0.313,0.256,0.568,0.57,0.568
		c0.314,0,0.568-0.255,0.568-0.568V13.31C14.39,12.996,14.137,12.74,13.822,12.74L13.822,12.74z M13.822,12.74"/>
</g>
</svg>
