<?xml version="1.0" encoding="utf-8"?>
<!-- Generator: Adobe Illustrator 16.0.0, SVG Export Plug-In . SVG Version: 6.00 Build 0)  -->
<!DOCTYPE svg PUBLIC "-//W3C//DTD SVG 1.1//EN" "http://www.w3.org/Graphics/SVG/1.1/DTD/svg11.dtd">
<svg version="1.1" id="Layer_1" xmlns="http://www.w3.org/2000/svg" xmlns:xlink="http://www.w3.org/1999/xlink" x="0px" y="0px"
	 width="42px" height="42px" viewBox="0 0 42 42" enable-background="new 0 0 42 42" xml:space="preserve">
<circle fill-rule="evenodd" clip-rule="evenodd" fill="#0085B2" cx="21" cy="21" r="21"/>
<g>
	
		<path fill-rule="evenodd" clip-rule="evenodd" fill="none" stroke="#FFFFFF" stroke-linecap="round" stroke-linejoin="round" stroke-miterlimit="10" d="
		M32.11,22.43c0,0.19-0.16,0.35-0.35,0.35h-2.24c-0.72,0-1.34,0.41-1.62,1.08c-0.28,0.66-0.13,1.4,0.38,1.91l1.59,1.58
		c0.13,0.14,0.13,0.36,0,0.5l-2.02,2.02c-0.14,0.13-0.36,0.13-0.5,0l-1.58-1.59c-0.51-0.51-1.25-0.65-1.91-0.38
		c-0.67,0.28-1.08,0.9-1.08,1.62v2.24c0,0.19-0.16,0.35-0.35,0.35h-2.86c-0.19,0-0.35-0.16-0.35-0.35v-2.24
		c0-0.72-0.41-1.34-1.08-1.62c-0.22-0.09-0.45-0.14-0.68-0.14c-0.45,0-0.89,0.18-1.23,0.52l-1.58,1.59c-0.14,0.13-0.36,0.13-0.5,0
		l-2.02-2.02c-0.13-0.14-0.13-0.36,0-0.5l1.59-1.58c0.51-0.51,0.66-1.25,0.38-1.91c-0.28-0.67-0.9-1.08-1.62-1.08h-2.24
		c-0.2,0-0.35-0.16-0.35-0.35v-2.86c0-0.19,0.15-0.35,0.35-0.35h2.24c0.72,0,1.34-0.41,1.62-1.08c0.28-0.67,0.13-1.4-0.38-1.91
		l-1.59-1.58c-0.13-0.14-0.13-0.36,0-0.5l2.02-2.02c0.14-0.13,0.36-0.13,0.5,0l1.58,1.59c0.51,0.51,1.24,0.66,1.91,0.38
		c0.67-0.28,1.08-0.9,1.08-1.62v-2.24c0-0.2,0.16-0.35,0.35-0.35h2.86c0.19,0,0.35,0.15,0.35,0.35v2.24c0,0.72,0.41,1.34,1.08,1.62
		c0.66,0.28,1.4,0.13,1.91-0.38l1.58-1.59c0.14-0.13,0.36-0.13,0.5,0l2.02,2.03c0.13,0.13,0.13,0.35,0,0.49l-1.59,1.58
		c-0.51,0.51-0.66,1.24-0.38,1.91c0.28,0.67,0.9,1.08,1.62,1.08h2.24c0.19,0,0.35,0.16,0.35,0.35V22.43z M31.76,18.33h-2.24
		c-0.36,0-0.66-0.2-0.8-0.53c-0.14-0.33-0.07-0.68,0.19-0.94l1.59-1.59c0.23-0.23,0.36-0.54,0.36-0.87s-0.13-0.64-0.36-0.87
		l-2.03-2.03c-0.46-0.46-1.28-0.46-1.74,0l-1.59,1.59c-0.26,0.25-0.61,0.33-0.94,0.19c-0.33-0.14-0.53-0.44-0.53-0.8v-2.24
		c0-0.69-0.56-1.24-1.24-1.24h-2.86c-0.68,0-1.24,0.55-1.24,1.24v2.24c0,0.36-0.2,0.66-0.53,0.8c-0.33,0.14-0.68,0.06-0.94-0.19
		l-1.59-1.59c-0.46-0.46-1.28-0.46-1.74,0l-2.03,2.03c-0.23,0.23-0.36,0.54-0.36,0.87s0.13,0.64,0.36,0.87l1.59,1.59
		c0.25,0.26,0.32,0.61,0.19,0.94c-0.14,0.33-0.44,0.53-0.8,0.53h-2.24C9.55,18.33,9,18.89,9,19.57v2.86c0,0.68,0.55,1.24,1.24,1.24
		h2.24c0.36,0,0.66,0.2,0.8,0.53c0.14,0.33,0.06,0.68-0.19,0.94l-1.59,1.59c-0.23,0.23-0.36,0.54-0.36,0.87s0.13,0.64,0.36,0.87
		l2.03,2.03c0.46,0.46,1.28,0.46,1.74,0l1.59-1.59c0.26-0.26,0.61-0.33,0.94-0.19c0.33,0.14,0.53,0.44,0.53,0.8v2.24
		c0,0.69,0.56,1.24,1.24,1.24h2.86c0.68,0,1.24-0.55,1.24-1.24v-2.24c0-0.36,0.2-0.66,0.53-0.8c0.33-0.14,0.68-0.07,0.94,0.19
		l1.59,1.59c0.46,0.46,1.28,0.46,1.74,0l2.03-2.03c0.23-0.23,0.36-0.54,0.36-0.87s-0.13-0.64-0.36-0.87l-1.59-1.59
		c-0.26-0.26-0.33-0.61-0.19-0.94c0.14-0.33,0.44-0.53,0.8-0.53h2.24c0.69,0,1.24-0.56,1.24-1.24v-2.86
		C33,18.89,32.45,18.33,31.76,18.33z"/>
	
		<path fill-rule="evenodd" clip-rule="evenodd" fill="none" stroke="#FFFFFF" stroke-linecap="round" stroke-linejoin="round" stroke-miterlimit="10" d="
		M21,24.11c-1.72,0-3.11-1.4-3.11-3.11c0-1.72,1.39-3.11,3.11-3.11c1.71,0,3.11,1.39,3.11,3.11C24.11,22.71,22.71,24.11,21,24.11z
		 M21,17c-2.21,0-4,1.79-4,4s1.79,4,4,4s4-1.79,4-4S23.21,17,21,17z"/>
</g>
</svg>
