<?xml version="1.0" encoding="utf-8"?>
<!-- Generator: Adobe Illustrator 16.0.0, SVG Export Plug-In . SVG Version: 6.00 Build 0)  -->
<!DOCTYPE svg PUBLIC "-//W3C//DTD SVG 1.1//EN" "http://www.w3.org/Graphics/SVG/1.1/DTD/svg11.dtd">
<svg version="1.1" id="Layer_1" xmlns="http://www.w3.org/2000/svg" xmlns:xlink="http://www.w3.org/1999/xlink" x="0px" y="0px"
	 width="42px" height="42px" viewBox="0 0 42 42" enable-background="new 0 0 42 42" xml:space="preserve">
<circle fill-rule="evenodd" clip-rule="evenodd" fill="#00A3D9" cx="21" cy="21" r="21"/>
<g>
	<path fill-rule="evenodd" clip-rule="evenodd" fill="#FFFFFF" d="M29.58,19.95c-0.43,0-0.77,0.35-0.77,0.77v7.81H13.19v-7.81
		c0-0.42-0.34-0.77-0.77-0.77c-0.42,0-0.77,0.35-0.77,0.77v8.58c0,0.42,0.35,0.77,0.77,0.77h17.16c0.42,0,0.77-0.35,0.77-0.77v-8.58
		C30.35,20.3,30,19.95,29.58,19.95z"/>
	<path fill-rule="evenodd" clip-rule="evenodd" fill="#FFFFFF" d="M33.67,20.18L21.54,8.04c-0.3-0.3-0.78-0.3-1.08,0L8.33,20.18
		c-0.31,0.3-0.31,0.78,0,1.08c0.15,0.15,0.34,0.23,0.54,0.23c0.2,0,0.39-0.08,0.54-0.23L21,9.68l11.59,11.58
		c0.3,0.31,0.78,0.31,1.08,0C33.98,20.96,33.98,20.48,33.67,20.18z"/>
</g>
</svg>
