<?xml version="1.0" encoding="utf-8"?>
<!-- Generator: Adobe Illustrator 16.0.0, SVG Export Plug-In . SVG Version: 6.00 Build 0)  -->
<!DOCTYPE svg PUBLIC "-//W3C//DTD SVG 1.1//EN" "http://www.w3.org/Graphics/SVG/1.1/DTD/svg11.dtd">
<svg version="1.1" id="Layer_1" xmlns="http://www.w3.org/2000/svg" xmlns:xlink="http://www.w3.org/1999/xlink" x="0px" y="0px"
	 width="42px" height="42px" viewBox="0 0 42 42" enable-background="new 0 0 42 42" xml:space="preserve">
<g>
	<circle fill-rule="evenodd" clip-rule="evenodd" fill="#00A3D9" cx="21" cy="21" r="21"/>
	<g>
		<path fill-rule="evenodd" clip-rule="evenodd" fill="#FFFFFF" d="M23.13,29.55c-0.09,0.11-0.19,0.22-0.33,0.35
			c-1.17,1.17-2.67,1.93-4.3,2.17c0-2.25-0.87-4.44-2.42-6.08c-0.06-0.07-0.12-0.13-0.18-0.18c-1.67-1.68-3.92-2.61-6.26-2.62
			c0.25-1.61,1.01-3.12,2.17-4.29c0.12-0.11,0.24-0.23,0.38-0.34c1.12-1,2.47-1.62,3.93-1.84c0.01,2.34,0.93,4.6,2.6,6.27l0.22,0.21
			c1.64,1.54,3.81,2.4,6.05,2.4C24.77,27.06,24.14,28.41,23.13,29.55z M11.81,29.89c-0.07-0.07-0.14-0.14-0.22-0.24
			c-1.33-1.44-2.06-3.36-2.04-5.32c2.08-0.01,4.07,0.8,5.55,2.28l0.11,0.11l0.03,0.04c1.39,1.45,2.15,3.4,2.13,5.4
			C15.29,32.18,13.29,31.37,11.81,29.89z M22.76,18.85l0.05,0.06c1.48,1.48,2.29,3.48,2.27,5.56c-1.98,0.02-3.92-0.73-5.38-2.11
			l-0.17-0.17c-1.48-1.48-2.29-3.48-2.27-5.56c2.03-0.01,4,0.77,5.45,2.19L22.76,18.85z M23.49,17.99
			c-1.81-1.75-4.29-2.65-6.82-2.47h-0.02h-0.02c-1.94,0.14-3.73,0.9-5.17,2.17c-0.16,0.13-0.3,0.27-0.44,0.41
			c-1.51,1.5-2.42,3.49-2.58,5.6l-0.01,0.02v0.02l0,0c0,2.45,0.66,4.88,2.3,6.66c0.09,0.1,0.19,0.2,0.28,0.29
			c1.67,1.68,3.93,2.61,6.29,2.61c0.22,0,0.44-0.01,0.66-0.02l0,0c2.13-0.15,4.13-1.07,5.64-2.57c0.16-0.15,0.3-0.3,0.4-0.43
			c1.29-1.46,2.05-3.25,2.19-5.19l0.01-0.01l0.01-0.02c0-2.58-0.75-5.12-2.58-6.95C23.59,18.07,23.53,18.02,23.49,17.99z"/>
		<path fill-rule="evenodd" clip-rule="evenodd" fill="#FFFFFF" d="M21.73,13.18c0.14,0,0.29-0.06,0.4-0.17l2.57-2.56
			c0.22-0.23,0.22-0.59,0-0.81c-0.22-0.22-0.58-0.22-0.8,0l-2.57,2.57c-0.22,0.22-0.22,0.58,0,0.8
			C21.44,13.12,21.58,13.18,21.73,13.18z"/>
		<path fill-rule="evenodd" clip-rule="evenodd" fill="#FFFFFF" d="M24.21,15.89c0.11,0.11,0.25,0.17,0.4,0.17
			c0.14,0,0.29-0.06,0.4-0.17l2.9-2.89c0.22-0.23,0.22-0.58,0-0.81c-0.23-0.22-0.58-0.22-0.81,0l-2.89,2.9
			C23.98,15.31,23.98,15.67,24.21,15.89z"/>
		<g>
			<g>
				<path fill-rule="evenodd" clip-rule="evenodd" fill="#FFFFFF" d="M28.9,11.77c0.15,0,0.29-0.06,0.4-0.17l1.26-1.25
					c0.22-0.23,0.22-0.58,0-0.8c-0.23-0.23-0.58-0.23-0.81,0L28.5,10.8c-0.22,0.22-0.22,0.58,0,0.8
					C28.61,11.71,28.76,11.77,28.9,11.77z"/>
				<path fill-rule="evenodd" clip-rule="evenodd" fill="#FFFFFF" d="M36.12,9.74c-0.22-0.22-0.58-0.22-0.8,0l-8.23,8.23
					c-0.22,0.23-0.22,0.59,0,0.81c0.11,0.11,0.26,0.16,0.4,0.16c0.15,0,0.29-0.05,0.4-0.16l8.23-8.24
					C36.35,10.32,36.35,9.96,36.12,9.74z"/>
			</g>
		</g>
	</g>
</g>
</svg>
