<?xml version="1.0" encoding="utf-8"?>
<!-- Generator: Adobe Illustrator 16.0.0, SVG Export Plug-In . SVG Version: 6.00 Build 0)  -->
<!DOCTYPE svg PUBLIC "-//W3C//DTD SVG 1.1//EN" "http://www.w3.org/Graphics/SVG/1.1/DTD/svg11.dtd">
<svg version="1.1" id="Layer_1" xmlns="http://www.w3.org/2000/svg" xmlns:xlink="http://www.w3.org/1999/xlink" x="0px" y="0px"
	 width="46px" height="39px" viewBox="0 0 46 39" enable-background="new 0 0 46 39" xml:space="preserve">
<path fill-rule="evenodd" clip-rule="evenodd" fill="#FFC926" d="M0.78,14.33c0-7.77,6.3-14.07,14.08-14.07
	c7.78,0,14.08,6.3,14.08,14.07c0,7.78-6.3,14.08-14.08,14.08C7.08,28.41,0.78,22.11,0.78,14.33z"/>
<g>
	<path fill-rule="evenodd" clip-rule="evenodd" fill="#FFFFFF" d="M24.28,6.12c-0.15-0.18-0.33-0.37-0.55-0.58
		C21.8,3.63,19.31,2.4,16.64,2c-0.02,3.68-1.44,7.24-4.01,9.92c-0.09,0.1-0.19,0.2-0.29,0.3C9.59,14.95,5.87,16.46,2,16.48
		c0.41,2.63,1.66,5.09,3.59,6.99c0.2,0.19,0.39,0.38,0.63,0.57c1.84,1.62,4.07,2.64,6.49,2.99c0-3.82,1.52-7.5,4.29-10.23
		c0.11-0.12,0.23-0.23,0.35-0.33c2.71-2.52,6.3-3.91,10-3.92C26.98,10.17,25.94,7.97,24.28,6.12z M5.58,5.57
		c-0.11,0.1-0.22,0.22-0.36,0.38c-2.2,2.35-3.39,5.48-3.36,8.68c3.42,0.02,6.72-1.31,9.16-3.72c0.06-0.06,0.12-0.12,0.17-0.18
		l0.06-0.06c2.29-2.37,3.54-5.55,3.51-8.82C11.33,1.82,8.03,3.15,5.58,5.57z M23.65,23.55l0.1-0.09c2.44-2.41,3.78-5.68,3.75-9.06
		c-3.28-0.03-6.47,1.19-8.88,3.43c-0.11,0.09-0.2,0.19-0.3,0.28c-2.44,2.42-3.78,5.68-3.74,9.07c3.36,0.02,6.6-1.26,9-3.57
		L23.65,23.55z M24.86,24.97c-2.98,2.85-7.08,4.31-11.25,4.02h-0.03h-0.03c-3.21-0.24-6.17-1.46-8.54-3.54
		c-0.27-0.21-0.5-0.43-0.74-0.66c-2.48-2.46-3.99-5.7-4.25-9.14l-0.01-0.02L0,15.59v-0.01c0-3.99,1.1-7.95,3.8-10.85
		c0.15-0.17,0.31-0.32,0.46-0.47C7.02,1.52,10.76,0,14.64,0c0.36,0,0.73,0.01,1.1,0.04h0.01c3.51,0.24,6.81,1.73,9.29,4.18
		c0.27,0.26,0.5,0.5,0.67,0.71c2.13,2.37,3.38,5.29,3.61,8.45l0.02,0.02c0,0.01,0.02,0.03,0.02,0.04c0,4.21-1.25,8.34-4.27,11.33
		C25.02,24.84,24.94,24.91,24.86,24.97z"/>
	<path fill="#FFFFFF" d="M21.96,32.8c0.24,0,0.48,0.09,0.66,0.27l4.24,4.19c0.37,0.36,0.37,0.95,0,1.31c-0.36,0.36-0.96,0.36-1.32,0
		l-4.24-4.19c-0.37-0.36-0.37-0.94,0-1.31C21.48,32.89,21.72,32.8,21.96,32.8z"/>
	<path fill="#FFFFFF" d="M26.05,28.38c0.18-0.18,0.42-0.27,0.66-0.27c0.24,0,0.48,0.09,0.67,0.27l4.78,4.72
		c0.36,0.37,0.36,0.95,0,1.31c-0.37,0.36-0.96,0.36-1.33,0l-4.78-4.72C25.68,29.33,25.68,28.74,26.05,28.38z"/>
	<path fill="#FFFFFF" d="M33.8,35.11c0.24,0,0.48,0.09,0.66,0.27l2.07,2.04c0.37,0.36,0.37,0.95,0,1.31c-0.36,0.36-0.96,0.36-1.32,0
		l-2.07-2.04c-0.37-0.36-0.37-0.95,0-1.31C33.32,35.2,33.56,35.11,33.8,35.11z"/>
	<path fill="#FFFFFF" d="M45.73,38.41c-0.37,0.36-0.96,0.36-1.33,0L30.81,24.99c-0.37-0.36-0.37-0.95,0-1.31
		c0.18-0.18,0.42-0.27,0.66-0.27c0.24,0,0.48,0.09,0.66,0.27l13.6,13.42C46.09,37.46,46.09,38.05,45.73,38.41z"/>
</g>
</svg>
