<?xml version="1.0" encoding="utf-8"?>
<!-- Generator: Adobe Illustrator 16.0.0, SVG Export Plug-In . SVG Version: 6.00 Build 0)  -->
<!DOCTYPE svg PUBLIC "-//W3C//DTD SVG 1.1//EN" "http://www.w3.org/Graphics/SVG/1.1/DTD/svg11.dtd">
<svg version="1.1" id="Layer_1" xmlns="http://www.w3.org/2000/svg" xmlns:xlink="http://www.w3.org/1999/xlink" x="0px" y="0px"
	 width="16.739px" height="16.688px" viewBox="0 0 16.739 16.688" enable-background="new 0 0 16.739 16.688" xml:space="preserve">
<g>
	<g>
		<path fill="#FFFFFF" d="M16.409,13.434l-2.642-2.643c-0.206-0.206-0.493-0.318-0.808-0.318c-0.331,0-0.649,0.128-0.875,0.354
			l-1.429,1.429l-0.386-0.214c-0.849-0.471-2.01-1.116-3.238-2.345C5.8,8.465,5.153,7.299,4.682,6.448L4.471,6.074l1.43-1.43
			c0.474-0.474,0.49-1.229,0.037-1.684L3.294,0.318C3.089,0.113,2.803,0,2.489,0c-0.332,0-0.65,0.13-0.877,0.355L0.963,1.007
			l-0.06,0.1c-0.243,0.31-0.44,0.659-0.587,1.037C0.178,2.505,0.092,2.85,0.052,3.194c-0.34,2.83,0.965,5.43,4.507,8.971
			c4.198,4.195,7.705,4.522,8.68,4.522c0.167,0,0.269-0.011,0.297-0.013c0.359-0.043,0.704-0.13,1.053-0.265
			c0.376-0.146,0.723-0.343,1.031-0.584l0.147-0.115l0.606-0.596C16.847,14.642,16.861,13.888,16.409,13.434L16.409,13.434z
			 M16.409,13.434"/>
	</g>
</g>
</svg>
