<?xml version="1.0" encoding="utf-8"?>
<!-- Generator: Adobe Illustrator 16.0.0, SVG Export Plug-In . SVG Version: 6.00 Build 0)  -->
<!DOCTYPE svg PUBLIC "-//W3C//DTD SVG 1.1//EN" "http://www.w3.org/Graphics/SVG/1.1/DTD/svg11.dtd">
<svg version="1.1" id="Layer_1" xmlns="http://www.w3.org/2000/svg" xmlns:xlink="http://www.w3.org/1999/xlink" x="0px" y="0px"
	 width="42px" height="42px" viewBox="0 0 42 42" enable-background="new 0 0 42 42" xml:space="preserve">
<g>
	<circle fill-rule="evenodd" clip-rule="evenodd" fill="#00B285" cx="21" cy="21" r="21"/>
</g>
<path fill-rule="evenodd" clip-rule="evenodd" fill="#FFFFFF" d="M13.15,29.01c1.65-2.1,2.02-2.65,1.95-3.2
	c-0.03-0.2-0.17-0.44-0.33-0.56c-2.07-1.52-3.21-3.56-3.21-5.74c0-4.4,4.69-7.98,10.46-7.98s10.46,3.58,10.46,7.98
	c0,4.4-4.69,7.98-10.46,7.98h-0.09c-1.49,0-2.15-0.02-3.42-0.47c-0.21-0.07-0.43-0.05-0.62,0.05c-1.84,1.01-3.93,2.09-5.37,2.75
	L13.15,29.01z M10.02,31.33c0.05,0.22,0.22,0.46,0.42,0.56c0.13,0.07,0.28,0.11,0.45,0.11c0.98,0,4.95-2.08,7.44-3.43
	c1.31,0.42,2.13,0.44,3.6,0.44h0.09c6.61,0,11.98-4.26,11.98-9.5C34,14.26,28.63,10,22.02,10s-11.98,4.26-11.98,9.51
	c0,2.47,1.22,4.85,3.37,6.62c-0.33,0.49-0.98,1.33-1.45,1.94C10.25,30.24,9.9,30.76,10.02,31.33z"/>
</svg>
