<?xml version="1.0" encoding="utf-8"?>
<!-- Generator: Adobe Illustrator 16.0.0, SVG Export Plug-In . SVG Version: 6.00 Build 0)  -->
<!DOCTYPE svg PUBLIC "-//W3C//DTD SVG 1.1//EN" "http://www.w3.org/Graphics/SVG/1.1/DTD/svg11.dtd">
<svg version="1.1" id="Layer_1" xmlns="http://www.w3.org/2000/svg" xmlns:xlink="http://www.w3.org/1999/xlink" x="0px" y="0px"
	 width="5.405px" height="5.405px" viewBox="0 0 5.405 5.405" enable-background="new 0 0 5.405 5.405" xml:space="preserve">
<path fill-rule="evenodd" clip-rule="evenodd" fill="#AEB2BE" d="M2.703,4.391c-0.196,0-0.387-0.022-0.571-0.062L1.337,4.807
	l0.011-0.784C0.737,3.658,0.339,3.05,0.339,2.364c0-1.119,1.058-2.027,2.364-2.027s2.366,0.908,2.366,2.027
	C5.068,3.483,4.009,4.391,2.703,4.391z M2.703,0C1.211,0,0,1.058,0,2.364C0,3.11,0.396,3.775,1.014,4.209v1.196l1.184-0.719
	C2.362,4.713,2.53,4.729,2.703,4.729c1.494,0,2.703-1.059,2.703-2.366C5.405,1.058,4.196,0,2.703,0z"/>
</svg>
