<?xml version="1.0" encoding="utf-8"?>
<!-- Generator: Adobe Illustrator 16.0.0, SVG Export Plug-In . SVG Version: 6.00 Build 0)  -->
<!DOCTYPE svg PUBLIC "-//W3C//DTD SVG 1.1//EN" "http://www.w3.org/Graphics/SVG/1.1/DTD/svg11.dtd">
<svg version="1.1" id="Layer_1" xmlns="http://www.w3.org/2000/svg" xmlns:xlink="http://www.w3.org/1999/xlink" x="0px" y="0px"
	 width="83.1px" height="70.755px" viewBox="0 0 83.1 70.755" enable-background="new 0 0 83.1 70.755" xml:space="preserve">
<path fill-rule="evenodd" clip-rule="evenodd" d="M35.758,13.979c-3.197-3.191-3.217-8.426-0.044-11.613
	c3.151-3.166,8.438-3.154,11.626,0.027c3.182,3.173,3.189,8.442,0.018,11.611C44.17,17.189,38.962,17.178,35.758,13.979
	L35.758,13.979z M39.818,13.911c-1.536-2.149-1.961-4.283-1.484-6.565c0.501-2.396,2.099-3.917,4.338-4.971
	c-2.931-0.791-6.073,1.144-6.951,4.143C34.825,9.581,36.495,12.813,39.818,13.911z"/>
<path fill-rule="evenodd" clip-rule="evenodd" d="M46.162,59.459c1.684,1.509,3.132,3.053,4.821,4.259
	c2.175,1.552,2.531,3.121,0.772,5.123c-0.359,0.41-0.766,0.794-1.203,1.117c-1.776,1.31-3.198,0.972-4.542-0.775
	c-1.35-1.754-2.885-3.365-4.541-5.272c-1.621,1.833-3.157,3.338-4.411,5.05c-1.403,1.915-2.948,2.291-4.796,0.787
	c-0.455-0.37-0.875-0.802-1.237-1.262c-1.44-1.829-1.102-3.333,0.755-4.726c1.699-1.274,3.238-2.763,4.962-4.256
	c-2.373-1.936-4.809-3.053-7.542-3.301c-2.556-0.232-5.15-0.407-7.702-0.236c-11.192,0.75-19.819-7.511-21.244-16.683
	c-1.85-11.908,6.673-20.262,15.781-21.347c11.629-1.385,22.929,8.424,22.152,21.245c-0.18,2.964,0.027,5.977,0.341,8.937
	c0.242,2.281,1.316,4.331,2.903,6.282c0.372-0.45,0.713-0.796,0.978-1.193c1.736-2.61,2.449-5.537,2.542-8.625
	c0.057-1.855,0.053-3.716-0.027-5.57c-0.44-10.208,6.224-18.792,16.236-20.871C71.359,16.025,81.49,23.25,82.91,33.264
	c1.699,11.992-8.243,23.602-21.366,22.716c-3.084-0.208-6.232,0.114-9.315,0.488C50.048,56.732,48.129,57.885,46.162,59.459
	L46.162,59.459z M18.341,20.864C9.619,20.849,2.975,27.423,2.965,36.077c-0.009,9.145,7.638,16.834,16.67,16.944
	c8.019,0.098,15.605-5.756,15.556-15.341C35.137,27.007,26.08,20.588,18.341,20.864L18.341,20.864z M64.856,20.864
	c-8.114-0.35-16.853,6.529-16.972,16.683c-0.102,8.631,6.603,15.434,15.047,15.452c9.459,0.02,17.29-7.624,17.184-16.927
	C80.003,26.145,72,20.563,64.856,20.864L64.856,20.864z M30.56,53.296c1.923,0.274,3.993,1.141,6.471,2.355
	c0.186,0.071,0.581,0.015,0.644-0.105c0.104-0.198,0.088-0.526-0.003-0.747c-0.512-1.24-1.139-2.438-1.574-3.704
	c-0.346-1.006-0.473-2.087-0.595-2.654C33.94,50.381,32.651,51.543,30.56,53.296L30.56,53.296z M47.667,48.698
	c-0.612,1.549-1.522,3.833-2.408,6.126c-0.072,0.187-0.049,0.514,0.072,0.644c0.117,0.126,0.45,0.167,0.632,0.098
	c2.327-0.881,4.645-1.789,6.229-2.404C50.586,51.881,48.938,50.254,47.667,48.698z"/>
<path fill-rule="evenodd" clip-rule="evenodd" d="M29.11,42.173c0.005,0.889-0.811,1.722-1.694,1.728
	c-0.899,0.007-1.704-0.791-1.715-1.7c-0.012-0.902,0.779-1.698,1.694-1.704C28.319,40.49,29.104,41.257,29.11,42.173z"/>
<path fill-rule="evenodd" clip-rule="evenodd" d="M23.623,36.723c-0.026,0.907-0.808,1.666-1.709,1.66
	c-0.943-0.006-1.765-0.876-1.698-1.798c0.067-0.918,0.858-1.627,1.772-1.589C22.894,35.034,23.649,35.833,23.623,36.723z"/>
<path fill-rule="evenodd" clip-rule="evenodd" d="M20.494,45.324c-0.024,0.897-0.825,1.692-1.7,1.688
	c-0.895-0.004-1.77-0.936-1.711-1.822s0.878-1.616,1.783-1.588C19.779,43.63,20.519,44.413,20.494,45.324z"/>
<path fill-rule="evenodd" clip-rule="evenodd" d="M19.843,47.986c0.021-0.906,0.8-1.642,1.724-1.63
	c0.93,0.011,1.684,0.757,1.688,1.669c0.004,0.932-0.879,1.785-1.788,1.727C20.576,49.695,19.821,48.874,19.843,47.986z"/>
<path fill-rule="evenodd" clip-rule="evenodd" d="M8.86,36.99c0.032-0.899,0.865-1.708,1.736-1.686
	c0.879,0.022,1.691,0.87,1.676,1.748c-0.015,0.917-0.787,1.636-1.742,1.624C9.59,38.664,8.828,37.895,8.86,36.99z"/>
<path fill-rule="evenodd" clip-rule="evenodd" d="M16.411,32.843c-0.969-0.01-1.676-0.732-1.658-1.693
	c0.018-0.927,0.805-1.706,1.706-1.687c0.864,0.019,1.703,0.877,1.699,1.739C18.153,32.092,17.344,32.853,16.411,32.843z"/>
<path fill-rule="evenodd" clip-rule="evenodd" d="M18.327,25.548c-0.024,0.891-0.861,1.692-1.747,1.672
	c-0.909-0.02-1.686-0.831-1.667-1.741c0.019-0.93,0.79-1.658,1.736-1.642C17.572,23.854,18.352,24.648,18.327,25.548z"/>
<path fill-rule="evenodd" clip-rule="evenodd" d="M19.16,35.615c-0.946-0.005-1.675-0.752-1.66-1.702
	c0.015-0.952,0.772-1.704,1.695-1.684c0.899,0.02,1.712,0.838,1.708,1.719C20.898,34.822,20.063,35.62,19.16,35.615z"/>
<path fill-rule="evenodd" clip-rule="evenodd" d="M15.177,34.046c0.033,0.928-0.7,1.723-1.62,1.758
	c-0.896,0.033-1.731-0.733-1.777-1.631c-0.046-0.894,0.72-1.701,1.646-1.734C14.378,32.404,15.144,33.107,15.177,34.046z"/>
<path fill-rule="evenodd" clip-rule="evenodd" d="M27.578,38.166c-0.963-0.003-1.682-0.729-1.663-1.68
	c0.019-0.913,0.832-1.723,1.706-1.698c0.867,0.025,1.71,0.886,1.7,1.735C29.31,37.41,28.505,38.168,27.578,38.166z"/>
<path fill-rule="evenodd" clip-rule="evenodd" d="M21.032,28.281c-0.016,0.935-0.787,1.699-1.7,1.685
	c-0.891-0.013-1.71-0.84-1.701-1.718c0.009-0.915,0.782-1.647,1.737-1.646C20.329,26.603,21.048,27.328,21.032,28.281z"/>
<path fill-rule="evenodd" clip-rule="evenodd" d="M15.397,28.45c-0.014,0.922-0.778,1.639-1.736,1.628
	c-0.967-0.011-1.691-0.736-1.674-1.678c0.017-0.905,0.832-1.704,1.722-1.686C14.59,26.731,15.41,27.574,15.397,28.45z"/>
<path fill-rule="evenodd" clip-rule="evenodd" d="M26.164,45.091c0.018,0.911-0.753,1.701-1.669,1.711
	c-0.918,0.01-1.693-0.751-1.706-1.676c-0.013-0.909,0.765-1.716,1.665-1.729C25.341,43.386,26.146,44.183,26.164,45.091z"/>
<path fill-rule="evenodd" clip-rule="evenodd" d="M12.428,31.388c-0.012,0.921-0.795,1.686-1.712,1.672
	c-0.89-0.013-1.693-0.843-1.674-1.73c0.02-0.905,0.82-1.67,1.734-1.657C11.715,29.686,12.44,30.439,12.428,31.388z"/>
<path fill-rule="evenodd" clip-rule="evenodd" d="M17.937,36.909c-0.029,0.943-0.763,1.598-1.76,1.57
	c-0.965-0.027-1.675-0.765-1.636-1.7c0.038-0.906,0.855-1.657,1.763-1.62C17.223,35.197,17.965,35.992,17.937,36.909z"/>
<path fill-rule="evenodd" clip-rule="evenodd" d="M30.278,40.937c-0.945-0.031-1.647-0.792-1.608-1.744
	c0.038-0.924,0.845-1.681,1.746-1.635c0.89,0.045,1.688,0.903,1.646,1.771C32.02,40.225,31.197,40.967,30.278,40.937z"/>
<path fill-rule="evenodd" clip-rule="evenodd" d="M24.704,37.768c0.938,0.021,1.667,0.784,1.642,1.718
	c-0.025,0.919-0.818,1.668-1.735,1.64c-0.908-0.028-1.691-0.844-1.667-1.734C22.97,38.493,23.778,37.747,24.704,37.768z"/>
<path fill-rule="evenodd" clip-rule="evenodd" d="M16.056,44.238c-0.874-0.006-1.729-0.845-1.734-1.704
	c-0.006-0.866,0.835-1.692,1.728-1.697c0.938-0.005,1.679,0.743,1.677,1.693C17.725,43.485,16.982,44.244,16.056,44.238z"/>
<path fill-rule="evenodd" clip-rule="evenodd" d="M21.689,44.029c-0.948-0.019-1.649-0.766-1.617-1.723
	c0.031-0.934,0.822-1.704,1.712-1.669c0.876,0.035,1.672,0.882,1.656,1.765C23.424,43.302,22.622,44.047,21.689,44.029z"/>
<path fill-rule="evenodd" clip-rule="evenodd" d="M14.987,39.772c0.015,0.933-0.733,1.683-1.679,1.685
	c-0.898,0.001-1.734-0.807-1.732-1.675c0.002-0.861,0.847-1.701,1.722-1.709C14.213,38.065,14.972,38.828,14.987,39.772z"/>
<path fill-rule="evenodd" clip-rule="evenodd" d="M7.831,35.913c-0.99,0.003-1.704-0.685-1.699-1.636
	c0.005-0.913,0.785-1.713,1.682-1.724c0.855-0.01,1.709,0.835,1.723,1.706C9.551,35.166,8.783,35.91,7.831,35.913z"/>
<path fill-rule="evenodd" clip-rule="evenodd" d="M24.851,35.402c-0.983-0.002-1.708-0.705-1.701-1.647
	c0.007-0.881,0.835-1.718,1.704-1.721c0.865-0.003,1.703,0.843,1.703,1.72C26.557,34.697,25.826,35.403,24.851,35.402z"/>
<path fill-rule="evenodd" clip-rule="evenodd" d="M22.051,29.303c0.901-0.027,1.716,0.743,1.745,1.648
	c0.029,0.944-0.677,1.668-1.65,1.692c-0.965,0.023-1.731-0.673-1.758-1.598C20.361,30.156,21.15,29.33,22.051,29.303z"/>
<path fill-rule="evenodd" clip-rule="evenodd" d="M18.971,41.234c-0.995-0.013-1.688-0.701-1.667-1.657
	c0.02-0.909,0.825-1.706,1.708-1.69c0.873,0.016,1.692,0.858,1.688,1.734C20.695,40.544,19.942,41.246,18.971,41.234z"/>
<path fill-rule="evenodd" clip-rule="evenodd" d="M65.872,39.798c-0.028,0.951-0.788,1.673-1.725,1.64
	c-0.896-0.033-1.684-0.87-1.652-1.756c0.031-0.901,0.851-1.653,1.769-1.624C65.224,38.088,65.901,38.822,65.872,39.798z"/>
<path fill-rule="evenodd" clip-rule="evenodd" d="M64.094,32.423c0.952,0.022,1.681,0.771,1.648,1.694
	c-0.031,0.888-0.863,1.679-1.743,1.657c-0.929-0.023-1.625-0.78-1.608-1.745C62.408,33.055,63.103,32.401,64.094,32.423z"/>
<path fill-rule="evenodd" clip-rule="evenodd" d="M57.479,42.301c-0.004,0.902-0.802,1.692-1.705,1.688
	c-0.932-0.004-1.686-0.766-1.681-1.698c0.005-0.926,0.77-1.688,1.695-1.688C56.704,40.604,57.484,41.387,57.479,42.301z"/>
<path fill-rule="evenodd" clip-rule="evenodd" d="M61.135,32.834c-0.904,0.009-1.705-0.774-1.718-1.679
	c-0.013-0.917,0.747-1.69,1.676-1.705c0.921-0.015,1.7,0.743,1.71,1.664C62.813,32.027,62.038,32.825,61.135,32.834z"/>
<path fill-rule="evenodd" clip-rule="evenodd" d="M63.888,30.069c-0.938,0.019-1.688-0.714-1.7-1.662
	c-0.012-0.93,0.737-1.708,1.657-1.722c0.898-0.013,1.715,0.778,1.728,1.675C65.585,29.262,64.808,30.051,63.888,30.069z"/>
<path fill-rule="evenodd" clip-rule="evenodd" d="M58.512,41.224c-0.955-0.009-1.665-0.741-1.648-1.7
	c0.016-0.937,0.785-1.7,1.697-1.684c0.877,0.016,1.696,0.858,1.686,1.734C60.234,40.478,59.44,41.233,58.512,41.224z"/>
<path fill-rule="evenodd" clip-rule="evenodd" d="M61.689,46.448c0.896,0.033,1.655,0.861,1.623,1.771
	c-0.033,0.949-0.787,1.643-1.747,1.609c-0.942-0.033-1.674-0.81-1.637-1.735C59.966,47.187,60.793,46.415,61.689,46.448z"/>
<path fill-rule="evenodd" clip-rule="evenodd" d="M71.198,28.622c-0.021,0.943-0.785,1.688-1.705,1.66
	c-0.88-0.026-1.693-0.88-1.667-1.75c0.027-0.898,0.84-1.653,1.758-1.632C70.555,26.921,71.22,27.631,71.198,28.622z"/>
<path fill-rule="evenodd" clip-rule="evenodd" d="M66.082,45.435c-0.012,0.942-0.753,1.643-1.723,1.629
	c-0.975-0.014-1.676-0.724-1.659-1.683c0.016-0.91,0.823-1.706,1.71-1.686C65.298,43.716,66.093,44.544,66.082,45.435z"/>
<path fill-rule="evenodd" clip-rule="evenodd" d="M58.705,46.931c-0.93,0.001-1.643-0.739-1.639-1.701
	c0.004-0.99,0.672-1.652,1.659-1.642c0.964,0.01,1.688,0.726,1.682,1.661C60.4,46.152,59.612,46.93,58.705,46.931z"/>
<path fill-rule="evenodd" clip-rule="evenodd" d="M66.674,23.944c0.9,0.034,1.682,0.855,1.659,1.747
	c-0.023,0.905-0.818,1.634-1.761,1.615c-0.957-0.02-1.644-0.751-1.615-1.719C64.985,24.638,65.747,23.91,66.674,23.944z"/>
<path fill-rule="evenodd" clip-rule="evenodd" d="M56.65,33.832c0.023-0.913,0.805-1.629,1.758-1.612
	c0.962,0.017,1.66,0.751,1.628,1.712c-0.03,0.917-0.85,1.707-1.727,1.666C57.427,35.555,56.629,34.707,56.65,33.832z"/>
<path fill-rule="evenodd" clip-rule="evenodd" d="M71.41,34.277c-0.019,0.943-0.76,1.641-1.729,1.628
	c-0.962-0.013-1.675-0.741-1.656-1.693c0.018-0.901,0.834-1.696,1.723-1.677C70.633,32.554,71.427,33.386,71.41,34.277z"/>
<path fill-rule="evenodd" clip-rule="evenodd" d="M57.271,36.675c-0.025,0.919-0.826,1.706-1.709,1.678
	c-0.88-0.028-1.677-0.872-1.659-1.756c0.019-0.936,0.765-1.63,1.735-1.613C56.61,35,57.297,35.71,57.271,36.675z"/>
<path fill-rule="evenodd" clip-rule="evenodd" d="M63.006,36.763c0.024,0.897-0.746,1.681-1.672,1.702
	c-0.979,0.022-1.688-0.655-1.702-1.623c-0.013-0.95,0.711-1.724,1.625-1.738C62.151,35.09,62.982,35.878,63.006,36.763z"/>
<path fill-rule="evenodd" clip-rule="evenodd" d="M68.438,31.297c0.011,0.961-0.699,1.723-1.623,1.74
	c-0.886,0.017-1.704-0.774-1.732-1.677c-0.028-0.908,0.726-1.675,1.668-1.696C67.729,29.642,68.427,30.317,68.438,31.297z"/>
<path fill-rule="evenodd" clip-rule="evenodd" d="M68.64,37.02c-0.016,0.948-0.761,1.668-1.708,1.65
	c-0.921-0.018-1.695-0.808-1.675-1.71c0.021-0.891,0.847-1.687,1.734-1.67C67.908,35.308,68.654,36.091,68.64,37.02z"/>
<path fill-rule="evenodd" clip-rule="evenodd" d="M54.549,39.421c-0.028,0.918-0.808,1.658-1.731,1.642
	c-0.944-0.018-1.608-0.74-1.59-1.73c0.019-1.027,0.641-1.616,1.681-1.592C53.883,37.763,54.577,38.474,54.549,39.421z"/>
<path fill-rule="evenodd" clip-rule="evenodd" d="M63.107,42.456c0.014,0.96-0.702,1.729-1.619,1.741
	c-0.895,0.011-1.712-0.773-1.741-1.669c-0.029-0.9,0.739-1.686,1.666-1.704C62.387,40.804,63.094,41.486,63.107,42.456z"/>
<path fill-rule="evenodd" clip-rule="evenodd" d="M71.598,39.89c0.021,0.894-0.762,1.718-1.658,1.746
	c-0.909,0.028-1.677-0.72-1.705-1.664c-0.03-0.97,0.657-1.693,1.619-1.705C70.805,38.255,71.575,38.973,71.598,39.89z"/>
<path fill-rule="evenodd" clip-rule="evenodd" d="M77.033,34.473c-0.018,0.986-0.727,1.679-1.686,1.65
	c-0.899-0.027-1.704-0.856-1.679-1.728c0.026-0.882,0.869-1.678,1.755-1.656C76.377,32.762,77.052,33.488,77.033,34.473z"/>
<path fill-rule="evenodd" clip-rule="evenodd" d="M74.175,31.479c0.016,0.914-0.738,1.66-1.685,1.667
	c-0.99,0.007-1.688-0.662-1.698-1.628c-0.01-0.944,0.708-1.681,1.657-1.699C73.355,29.802,74.158,30.574,74.175,31.479z"/>
<path fill-rule="evenodd" clip-rule="evenodd" d="M67.192,40.976c0.905,0.027,1.684,0.844,1.656,1.739
	c-0.027,0.936-0.782,1.621-1.754,1.594c-0.988-0.027-1.653-0.722-1.625-1.697C65.497,41.67,66.258,40.948,67.192,40.976z"/>
<path fill-rule="evenodd" clip-rule="evenodd" d="M74.277,37.206c-0.008,0.966-0.735,1.701-1.666,1.682
	c-0.902-0.018-1.689-0.827-1.677-1.723c0.013-0.916,0.792-1.671,1.715-1.663C73.611,35.512,74.284,36.216,74.277,37.206z"/>
</svg>
