<?xml version="1.0" encoding="utf-8"?>
<!-- Generator: Adobe Illustrator 16.0.0, SVG Export Plug-In . SVG Version: 6.00 Build 0)  -->
<!DOCTYPE svg PUBLIC "-//W3C//DTD SVG 1.1//EN" "http://www.w3.org/Graphics/SVG/1.1/DTD/svg11.dtd">
<svg version="1.1" id="Layer_1" xmlns="http://www.w3.org/2000/svg" xmlns:xlink="http://www.w3.org/1999/xlink" x="0px" y="0px"
	 width="42px" height="42px" viewBox="0 0 42 42" enable-background="new 0 0 42 42" xml:space="preserve">
<circle fill="#0085B2" cx="21" cy="21" r="21"/>
<g>
	<path fill="#FFFFFF" d="M11.619,14.321l8.027,6.358c0.363,0.285,0.867,0.414,1.352,0.392c0.488,0.022,0.988-0.103,1.355-0.392
		l8.027-6.358c0.641-0.508,0.496-0.922-0.32-0.922H11.939C11.123,13.399,10.979,13.813,11.619,14.321L11.619,14.321z"/>
	<path fill="#FFFFFF" d="M30.959,15.997l-8.772,6.66c-0.329,0.246-0.759,0.367-1.185,0.363c-0.43,0.004-0.859-0.117-1.188-0.363
		l-8.773-6.66c-0.652-0.493-1.184-0.227-1.184,0.589v10.926c0,0.816,0.668,1.488,1.484,1.488h19.316
		c0.816,0,1.484-0.672,1.484-1.488V16.586C32.143,15.771,31.611,15.504,30.959,15.997L30.959,15.997z"/>
</g>
</svg>
