<?xml version="1.0" encoding="utf-8"?>
<!-- Generator: Adobe Illustrator 16.0.0, SVG Export Plug-In . SVG Version: 6.00 Build 0)  -->
<!DOCTYPE svg PUBLIC "-//W3C//DTD SVG 1.1//EN" "http://www.w3.org/Graphics/SVG/1.1/DTD/svg11.dtd">
<svg version="1.1" id="Layer_1" xmlns="http://www.w3.org/2000/svg" xmlns:xlink="http://www.w3.org/1999/xlink" x="0px" y="0px"
	 width="22.285px" height="15.602px" viewBox="0 0 22.285 15.602" enable-background="new 0 0 22.285 15.602" xml:space="preserve">
<g>
	<path fill="#FFFFFF" d="M1.762,0.922l8.027,6.359c0.363,0.285,0.867,0.414,1.352,0.391c0.488,0.023,0.988-0.102,1.355-0.391
		l8.027-6.359C21.164,0.414,21.02,0,20.203,0H2.082C1.266,0,1.121,0.414,1.762,0.922L1.762,0.922z M1.762,0.922"/>
	<path fill="#FFFFFF" d="M21.102,2.598l-8.773,6.66C12,9.504,11.57,9.625,11.145,9.621c-0.43,0.004-0.86-0.117-1.188-0.363
		l-8.773-6.66C0.531,2.105,0,2.371,0,3.187v10.926c0,0.816,0.668,1.488,1.484,1.488h19.317c0.816,0,1.484-0.672,1.484-1.488V3.187
		C22.285,2.371,21.754,2.105,21.102,2.598L21.102,2.598z M21.102,2.598"/>
</g>
</svg>
