<?xml version="1.0" encoding="utf-8"?>
<!-- Generator: Adobe Illustrator 16.0.0, SVG Export Plug-In . SVG Version: 6.00 Build 0)  -->
<!DOCTYPE svg PUBLIC "-//W3C//DTD SVG 1.1//EN" "http://www.w3.org/Graphics/SVG/1.1/DTD/svg11.dtd">
<svg version="1.1" id="Layer_1" xmlns="http://www.w3.org/2000/svg" xmlns:xlink="http://www.w3.org/1999/xlink" x="0px" y="0px"
	 width="42px" height="42px" viewBox="0 0 42 42" enable-background="new 0 0 42 42" xml:space="preserve">
<circle fill="#0085B2" cx="21" cy="21" r="21"/>
<g>
	<g>
		<path fill="#FAFAFA" d="M35.415,16.106c-0.905-0.905-2.378-0.905-3.283,0c-0.278,0.279-2.056,2.059-2.327,2.33v-6.131
			c0-0.621-0.242-1.204-0.681-1.642l-2.188-2.188c-0.438-0.439-1.021-0.68-1.642-0.68H12.009c-1.28,0-2.321,1.041-2.321,2.321
			v21.768c0,1.28,1.041,2.321,2.321,2.321h15.474c1.28,0,2.322-1.041,2.322-2.321v-6.879l5.61-5.616
			C36.322,18.481,36.322,17.013,35.415,16.106z M25.162,9.343c0.146,0,0.428-0.026,0.68,0.226l2.188,2.189
			c0.245,0.246,0.227,0.514,0.227,0.68h-3.095V9.343z M28.257,31.884c0,0.427-0.348,0.773-0.774,0.773H12.009
			c-0.427,0-0.774-0.347-0.774-0.773V10.116c0-0.427,0.347-0.773,0.774-0.773h11.605v3.868c0,0.427,0.347,0.774,0.774,0.774h3.868v6
			l-2.283,2.285l-1.093,1.095c-0.085,0.084-0.149,0.188-0.187,0.302L23.6,26.949c-0.093,0.277-0.021,0.584,0.187,0.791
			c0.208,0.208,0.514,0.28,0.792,0.188l3.282-1.095c0.114-0.038,0.218-0.102,0.303-0.187l0.094-0.094V31.884L28.257,31.884z
			 M26.521,23.91l1.094,1.095l-0.417,0.417l-1.642,0.548l0.547-1.641L26.521,23.91z M28.71,23.91l-1.095-1.095
			c0.583-0.583,3.17-3.172,3.72-3.721l1.094,1.093L28.71,23.91z M34.32,18.295l-0.798,0.798l-1.095-1.095l0.799-0.798
			c0.302-0.302,0.792-0.302,1.094,0S34.624,17.992,34.32,18.295z"/>
	</g>
</g>
<g>
	<g>
		<path fill="#FAFAFA" d="M24.389,15.532H13.557c-0.428,0-0.774,0.346-0.774,0.774s0.346,0.774,0.774,0.774h10.832
			c0.427,0,0.773-0.346,0.773-0.774S24.815,15.532,24.389,15.532z"/>
	</g>
</g>
<g>
	<g>
		<path fill="#FAFAFA" d="M21.293,18.627h-7.737c-0.428,0-0.774,0.347-0.774,0.774c0,0.427,0.346,0.774,0.774,0.774h7.737
			c0.427,0,0.773-0.347,0.773-0.774C22.066,18.974,21.721,18.627,21.293,18.627z"/>
	</g>
</g>
<g>
	<g>
		<path fill="#FAFAFA" d="M21.293,21.723h-7.737c-0.428,0-0.774,0.346-0.774,0.773c0,0.427,0.346,0.773,0.774,0.773h7.737
			c0.427,0,0.773-0.347,0.773-0.773C22.066,22.068,21.721,21.723,21.293,21.723z"/>
	</g>
</g>
<g>
	<g>
		<path fill="#FAFAFA" d="M21.293,24.817h-7.737c-0.428,0-0.774,0.346-0.774,0.773c0,0.427,0.346,0.773,0.774,0.773h7.737
			c0.427,0,0.773-0.347,0.773-0.773C22.066,25.163,21.721,24.817,21.293,24.817z"/>
	</g>
</g>
</svg>
