<?xml version="1.0" encoding="utf-8"?>
<!-- Generator: Adobe Illustrator 16.0.0, SVG Export Plug-In . SVG Version: 6.00 Build 0)  -->
<!DOCTYPE svg PUBLIC "-//W3C//DTD SVG 1.1//EN" "http://www.w3.org/Graphics/SVG/1.1/DTD/svg11.dtd">
<svg version="1.1" id="Layer_1" xmlns="http://www.w3.org/2000/svg" xmlns:xlink="http://www.w3.org/1999/xlink" x="0px" y="0px"
	 width="42px" height="42px" viewBox="0 0 42 42" enable-background="new 0 0 42 42" xml:space="preserve">
<circle fill-rule="evenodd" clip-rule="evenodd" fill="#0085B2" cx="21" cy="21" r="21"/>
<path fill-rule="evenodd" clip-rule="evenodd" fill="#FFFFFF" d="M18.98,41.9C19.64,41.97,20.31,42,21,42l-3.02-4.83l3.45-2.15
	c0.94-0.59,1.83-1.16,2.65-1.71l4.46-2.78l4.69,7.54c0.46-0.32,0.9-0.67,1.32-1.03L24.23,20.46l6.36-3.98l8.95,14.39
	c0.31-0.58,0.59-1.18,0.85-1.79L28.49,9.92L0.92,27.18c0.17,0.54,0.36,1.08,0.57,1.61l6.69-4.19l1.77,2.82l-6.97,4.36
	c0.28,0.48,0.58,0.94,0.9,1.39l6.95-4.34l4.81,7.73l-3.28,2.04l-1.37,0.87c0.61,0.33,1.23,0.63,1.87,0.89l0.43-0.27l3.28-2.04
	L18.98,41.9z M17.05,35.68l-4.81-7.73l10.58-6.61l4.84,7.78L23.2,31.9c-0.85,0.49-1.76,1.04-2.7,1.62L17.05,35.68z M29.72,15.06
	L11.36,26.54l-1.77-2.82l18.36-11.49L29.72,15.06z"/>
</svg>
