<?xml version="1.0" encoding="utf-8"?>
<!-- Generator: Adobe Illustrator 16.0.0, SVG Export Plug-In . SVG Version: 6.00 Build 0)  -->
<!DOCTYPE svg PUBLIC "-//W3C//DTD SVG 1.1//EN" "http://www.w3.org/Graphics/SVG/1.1/DTD/svg11.dtd">
<svg version="1.1" id="Layer_1" xmlns="http://www.w3.org/2000/svg" xmlns:xlink="http://www.w3.org/1999/xlink" x="0px" y="0px"
	 width="42px" height="42px" viewBox="0 0 42 42" enable-background="new 0 0 42 42" xml:space="preserve">
<g>
	<circle fill-rule="evenodd" clip-rule="evenodd" fill="#CC99FF" cx="21" cy="21" r="21"/>
</g>
<g>
	<g>
		<g>
			<path fill-rule="evenodd" clip-rule="evenodd" fill="#FFFFFF" d="M35.42,23.32c-0.37-0.22-0.84-0.17-1.29,0.13l-8.31,5.57
				c-0.23,0.15-0.3,0.48-0.15,0.72c0.14,0.25,0.45,0.32,0.68,0.17l8.3-5.57c0.18-0.12,0.27-0.11,0.29-0.1
				c0.01,0.01,0.07,0.09,0.07,0.31c0,0.59-0.41,1.39-0.88,1.71l-8.05,5.39c-0.43,0.29-0.82,0.37-1.08,0.22
				c-0.25-0.15-0.4-0.54-0.4-1.08c0-1.37,0.92-3.13,2-3.86l9.17-6.15c0.14-0.09,0.23-0.26,0.23-0.44c0-0.18-0.09-0.35-0.23-0.45
				L18.16,8.08c-0.17-0.11-0.37-0.11-0.53,0L8.35,14.3C7.03,15.19,6,17.18,6,18.84v0.28c0,1.66,1.03,3.65,2.35,4.53l13.8,9.26
				c0.23,0.15,0.54,0.08,0.68-0.17c0.15-0.24,0.08-0.57-0.15-0.72l-13.8-9.26c-1.03-0.68-1.89-2.35-1.89-3.64v-0.28
				c0-1.29,0.86-2.96,1.89-3.65l9.01-6.04l16.69,11.19l-8.5,5.7c-1.39,0.92-2.47,3.01-2.47,4.75c0,0.95,0.33,1.66,0.91,2
				c0.24,0.14,0.5,0.21,0.78,0.21c0.41,0,0.85-0.15,1.3-0.45l8.05-5.4c0.76-0.51,1.35-1.65,1.35-2.6
				C36,23.98,35.79,23.53,35.42,23.32z"/>
		</g>
	</g>
	<path fill-rule="evenodd" clip-rule="evenodd" fill="#FFFFFF" d="M29.32,20.86c0.16,0,0.32-0.08,0.42-0.24
		c0.14-0.25,0.07-0.57-0.16-0.73l-11.42-7.66c-0.24-0.16-0.54-0.08-0.69,0.16c-0.14,0.25-0.07,0.58,0.16,0.73l11.43,7.66
		C29.14,20.84,29.23,20.86,29.32,20.86z"/>
	<path fill-rule="evenodd" clip-rule="evenodd" fill="#FFFFFF" d="M27.34,22.26c0.17,0,0.33-0.09,0.42-0.25
		c0.15-0.24,0.08-0.57-0.16-0.72l-4.82-3.22c-0.23-0.16-0.54-0.08-0.68,0.16c-0.15,0.25-0.08,0.57,0.15,0.73l4.83,3.22
		C27.16,22.23,27.25,22.26,27.34,22.26z"/>
	<path fill-rule="evenodd" clip-rule="evenodd" fill="#FFFFFF" d="M20.76,19.45c-0.23-0.15-0.53-0.08-0.68,0.17
		c-0.14,0.25-0.07,0.57,0.16,0.72l4.86,3.24c0.08,0.05,0.17,0.08,0.26,0.08c0.17,0,0.33-0.09,0.42-0.25
		c0.15-0.25,0.08-0.57-0.15-0.73L20.76,19.45z"/>
	<path fill-rule="evenodd" clip-rule="evenodd" fill="#FFFFFF" d="M15.57,13.61l-4.11,2.75c-0.14,0.1-0.23,0.27-0.23,0.45
		s0.09,0.35,0.24,0.45l4.9,3.24c0.08,0.05,0.17,0.08,0.26,0.08c0.09,0,0.19-0.03,0.27-0.08l1.09-0.76c0.23-0.15,0.29-0.48,0.15-0.72
		c-0.15-0.25-0.46-0.32-0.69-0.16l-0.83,0.57l-3.96-2.62l3.18-2.13l3.9,2.6l-0.45,0.32c-0.23,0.15-0.3,0.48-0.15,0.72
		c0.15,0.25,0.46,0.32,0.69,0.16l1.1-0.76c0.15-0.1,0.23-0.27,0.23-0.45s-0.09-0.34-0.23-0.44l-4.83-3.22
		C15.94,13.5,15.73,13.5,15.57,13.61z"/>
	<path fill-rule="evenodd" clip-rule="evenodd" fill="#FFFFFF" d="M23.81,24.81c0.14-0.25,0.07-0.57-0.16-0.73l-4.9-3.24
		c-0.23-0.16-0.54-0.08-0.68,0.17c-0.15,0.24-0.08,0.57,0.16,0.72l4.9,3.25c0.08,0.05,0.17,0.08,0.26,0.08
		C23.55,25.06,23.71,24.97,23.81,24.81z"/>
	<path fill-rule="evenodd" clip-rule="evenodd" fill="#FFFFFF" d="M9.53,18.07c-0.15,0.25-0.07,0.57,0.16,0.72l12.1,8.01
		c0.08,0.06,0.17,0.08,0.26,0.08c0.16,0,0.32-0.09,0.42-0.25c0.14-0.24,0.07-0.57-0.16-0.72l-12.1-8.01
		C9.98,17.75,9.67,17.82,9.53,18.07z"/>
</g>
</svg>
