<?xml version="1.0" encoding="utf-8"?>
<!-- Generator: Adobe Illustrator 16.0.0, SVG Export Plug-In . SVG Version: 6.00 Build 0)  -->
<!DOCTYPE svg PUBLIC "-//W3C//DTD SVG 1.1//EN" "http://www.w3.org/Graphics/SVG/1.1/DTD/svg11.dtd">
<svg version="1.1" id="Layer_1" xmlns="http://www.w3.org/2000/svg" xmlns:xlink="http://www.w3.org/1999/xlink" x="0px" y="0px"
	 width="42px" height="42px" viewBox="0 0 42 42" enable-background="new 0 0 42 42" xml:space="preserve">
<g>
	<circle fill-rule="evenodd" clip-rule="evenodd" fill="#A3D900" cx="21" cy="21" r="21"/>
	<g>
		<g>
			<path fill-rule="evenodd" clip-rule="evenodd" fill="#FFFFFF" d="M19.08,11.23c0-1.4,1.14-2.53,2.55-2.53
				c1.41,0,2.55,1.13,2.55,2.53c0,1.39-1.14,2.52-2.55,2.52C20.22,13.75,19.08,12.62,19.08,11.23z M31.51,16.33l-2.36,1.29
				l0.05-2.67c0.02-0.95,0.81-1.52,1.56-1.52c0.29,0,0.56,0.08,0.81,0.23c0.48,0.29,0.76,0.79,0.75,1.35
				C32.3,15.57,32,16.06,31.51,16.33z M20.98,18.35c1.78,1.01,3.74,1.64,5.77,1.86l-0.8,1.3c-1.86-0.63-3.59-1.62-5.08-2.9
				L20.98,18.35z M32.29,12.48c-0.47-0.28-0.99-0.42-1.53-0.42c-1.62,0-2.91,1.25-2.95,2.86l-0.05,2.6c-2.1-0.1-4.12-0.74-5.9-1.86
				l-1.08-0.68c-0.28-0.16-0.56-0.23-0.59-0.24c-1.15-0.37-2.29,0.09-2.72,1.15l-2.55,6.34c-0.1,0.24-0.27,0.85-0.27,1.28
				c-0.02,2.39-1.24,4.61-3.25,5.93l-0.72,0.47c-0.64,0.42-0.81,1.28-0.39,1.91c0.43,0.64,1.29,0.81,1.93,0.39l0.72-0.47
				c2.09-1.38,3.56-3.45,4.17-5.8c2,1.52,3.71,3.34,5.1,5.44l0.33,0.49c0.27,0.4,0.71,0.62,1.16,0.62c0.26,0,0.53-0.08,0.77-0.23
				c0.64-0.42,0.81-1.28,0.39-1.91l-0.32-0.49c-1.57-2.36-3.5-4.41-5.74-6.11l0.99-2.45c1.61,1.24,3.44,2.22,5.38,2.86l0.44,0.14
				c0.14,0.05,0.29,0.07,0.44,0.07c0.58,0,1.12-0.36,1.32-0.94c0.15-0.44,0.06-0.88-0.2-1.23l1.16-1.87h0.24
				c0.77,0,1.4-0.64,1.4-1.4l-0.01-0.17l2.22-1.22c0.93-0.5,1.5-1.44,1.53-2.5C33.73,13.99,33.2,13.03,32.29,12.48z"/>
		</g>
	</g>
</g>
</svg>
