<?xml version="1.0" encoding="utf-8"?>
<!-- Generator: Adobe Illustrator 16.0.0, SVG Export Plug-In . SVG Version: 6.00 Build 0)  -->
<!DOCTYPE svg PUBLIC "-//W3C//DTD SVG 1.1//EN" "http://www.w3.org/Graphics/SVG/1.1/DTD/svg11.dtd">
<svg version="1.1" id="Layer_1" xmlns="http://www.w3.org/2000/svg" xmlns:xlink="http://www.w3.org/1999/xlink" x="0px" y="0px"
	 width="16px" height="14px" viewBox="0 0 16 14" enable-background="new 0 0 16 14" xml:space="preserve">
<g>
	<g>
		<g>
			<path fill-rule="evenodd" clip-rule="evenodd" fill="#AEB2BE" d="M13.8,3.13c-0.21-1.56-1.64-2.78-3.39-2.78
				c-0.83,0-1.59,0.29-2.18,0.75C7.67,0.43,6.8,0,5.83,0C4.37,0,3.15,0.95,2.85,2.22C1.26,2.32,0,3.53,0,5.02
				c0,1.57,1.37,2.83,3.06,2.83c0.36,0,0.7-0.07,1.02-0.17c0.55,0.71,1.45,1.17,2.47,1.17c0.62,0,1.19-0.17,1.68-0.47
				c0.55,0.5,1.3,0.8,2.12,0.8c1.23,0,2.27-0.66,2.76-1.62c0.15,0.03,0.3,0.04,0.46,0.04c1.34,0,2.43-1,2.43-2.24
				C16,4.19,15.03,3.24,13.8,3.13z"/>
		</g>
	</g>
	<path fill-rule="evenodd" clip-rule="evenodd" fill="#AEB2BE" d="M3.13,9.18c0,0-0.94,1.42-0.94,1.9s0.43,0.87,0.94,0.87
		c0.52,0,0.94-0.39,0.94-0.87S3.13,9.18,3.13,9.18z"/>
	<path fill-rule="evenodd" clip-rule="evenodd" fill="#AEB2BE" d="M4.63,13.13c0,0.48,0.42,0.87,0.94,0.87s0.94-0.39,0.94-0.87
		s-0.94-1.89-0.94-1.89S4.63,12.65,4.63,13.13z"/>
	<path fill-rule="evenodd" clip-rule="evenodd" fill="#AEB2BE" d="M8,9.18c0,0-0.94,1.42-0.94,1.9S7.48,11.95,8,11.95
		s0.94-0.39,0.94-0.87S8,9.18,8,9.18z"/>
	<path fill-rule="evenodd" clip-rule="evenodd" fill="#AEB2BE" d="M9.49,13.13c0,0.48,0.42,0.87,0.94,0.87s0.94-0.39,0.94-0.87
		s-0.94-1.89-0.94-1.89S9.49,12.65,9.49,13.13z"/>
	<path fill-rule="evenodd" clip-rule="evenodd" fill="#AEB2BE" d="M11.93,11.08c0,0.48,0.42,0.87,0.94,0.87
		c0.51,0,0.94-0.39,0.94-0.87s-0.94-1.9-0.94-1.9S11.93,10.6,11.93,11.08z"/>
</g>
</svg>
