<?xml version="1.0" encoding="utf-8"?>
<!-- Generator: Adobe Illustrator 16.0.0, SVG Export Plug-In . SVG Version: 6.00 Build 0)  -->
<!DOCTYPE svg PUBLIC "-//W3C//DTD SVG 1.1//EN" "http://www.w3.org/Graphics/SVG/1.1/DTD/svg11.dtd">
<svg version="1.1" id="Layer_1" xmlns="http://www.w3.org/2000/svg" xmlns:xlink="http://www.w3.org/1999/xlink" x="0px" y="0px"
	 width="105.001px" height="74.996px" viewBox="0 0 105.001 74.996" enable-background="new 0 0 105.001 74.996"
	 xml:space="preserve">
<g>
	<path fill-rule="evenodd" clip-rule="evenodd" fill="#85B200" d="M32.181,63.668l61.54-61.81c2.53-2.53,6.68-2.47,9.29,0.14
		c2.6,2.62,2.66,6.79,0.14,9.33l-61.55,61.81c-2.52,2.53-6.68,2.47-9.28-0.14C29.71,70.378,29.65,66.208,32.181,63.668z"/>
	<path fill-rule="evenodd" clip-rule="evenodd" fill="#85B200" d="M1.851,43.868l28.64,28.27c2.52,2.53,6.68,2.47,9.28-0.14
		c2.61-2.62,2.67-6.79,0.14-9.33l-28.63-28.26c-2.53-2.54-6.68-2.48-9.29,0.14C-0.609,37.158-0.669,41.328,1.851,43.868z"/>
</g>
</svg>
