<?xml version="1.0" encoding="utf-8"?>
<!-- Generator: Adobe Illustrator 16.0.0, SVG Export Plug-In . SVG Version: 6.00 Build 0)  -->
<!DOCTYPE svg PUBLIC "-//W3C//DTD SVG 1.1//EN" "http://www.w3.org/Graphics/SVG/1.1/DTD/svg11.dtd">
<svg version="1.1" id="Layer_1" xmlns="http://www.w3.org/2000/svg" xmlns:xlink="http://www.w3.org/1999/xlink" x="0px" y="0px"
	 width="67.003px" height="67px" viewBox="0 0 67.003 67" enable-background="new 0 0 67.003 67" xml:space="preserve">
<g>
	<g>
		<path fill-rule="evenodd" clip-rule="evenodd" fill="#AEB2BE" d="M25.561,7.12c0-3.93,3.23-7.12,7.22-7.12
			c4,0,7.23,3.19,7.23,7.12c0,3.93-3.23,7.12-7.23,7.12C28.791,14.24,25.561,11.05,25.561,7.12z M60.771,21.49l-6.69,3.63l0.16-7.52
			c0.06-2.67,2.29-4.26,4.42-4.26c0.8,0,1.56,0.21,2.27,0.64c1.37,0.81,2.16,2.23,2.12,3.8C63.021,19.35,62.171,20.74,60.771,21.49z
			 M30.931,27.19c5.04,2.84,10.6,4.62,16.36,5.22l-2.26,3.67c-5.27-1.77-10.19-4.56-14.39-8.16L30.931,27.19z M62.981,10.65
			c-1.32-0.78-2.81-1.2-4.32-1.2c-4.59,0-8.27,3.54-8.36,8.06l-0.16,7.33c-5.94-0.28-11.68-2.07-16.7-5.23l-3.06-1.93
			c-0.81-0.43-1.59-0.63-1.69-0.66c-3.25-1.06-6.47,0.26-7.69,3.24l-7.24,17.84c-0.28,0.7-0.74,2.4-0.75,3.62
			c-0.07,6.73-3.51,12.98-9.21,16.7l-2.04,1.33c-1.81,1.19-2.31,3.6-1.1,5.38c1.2,1.79,3.65,2.28,5.46,1.09l2.04-1.33
			c5.92-3.87,10.08-9.7,11.83-16.32c5.64,4.28,10.49,9.41,14.44,15.31l0.92,1.38c0.76,1.13,2.02,1.74,3.3,1.74
			c0.74,0,1.5-0.21,2.17-0.64c1.81-1.18,2.31-3.59,1.12-5.38l-0.93-1.38c-4.45-6.64-9.9-12.41-16.25-17.21l2.8-6.9
			c4.58,3.5,9.75,6.25,15.25,8.05l1.24,0.41c0.42,0.14,0.84,0.2,1.25,0.2c1.65,0,3.19-1.03,3.74-2.65c0.42-1.25,0.17-2.5-0.56-3.48
			l3.27-5.27h0.7c2.18,0,3.95-1.79,3.95-3.94c0-0.15-0.02-0.33-0.03-0.48l6.3-3.42c2.64-1.43,4.26-4.07,4.33-7.04
			C67.061,14.9,65.561,12.2,62.981,10.65z"/>
	</g>
</g>
</svg>
