<?xml version="1.0" encoding="utf-8"?>
<!-- Generator: Adobe Illustrator 16.0.0, SVG Export Plug-In . SVG Version: 6.00 Build 0)  -->
<!DOCTYPE svg PUBLIC "-//W3C//DTD SVG 1.1//EN" "http://www.w3.org/Graphics/SVG/1.1/DTD/svg11.dtd">
<svg version="1.1" id="Layer_1" xmlns="http://www.w3.org/2000/svg" xmlns:xlink="http://www.w3.org/1999/xlink" x="0px" y="0px"
	 width="42px" height="42px" viewBox="0 0 42 42" enable-background="new 0 0 42 42" xml:space="preserve">
<g>
	<circle fill-rule="evenodd" clip-rule="evenodd" fill="#FFA64D" cx="21" cy="21" r="21"/>
	<g>
		<g>
			<path fill-rule="evenodd" clip-rule="evenodd" fill="#FFFFFF" d="M30.67,13.99c-0.15,2.75-1.23,4.59-2.42,5.81v-6.44h1.81
				C30.41,13.36,30.69,13.64,30.67,13.99z M23.66,33.13h-5.32c0-0.96,1.04-1.75,2.37-1.85h0.58C22.62,31.38,23.66,32.17,23.66,33.13
				z M11.33,13.99c-0.02-0.35,0.26-0.63,0.61-0.63h1.81v6.44C12.56,18.58,11.48,16.74,11.33,13.99z M26.12,23.23
				c-0.83,1.86-2.71,3.16-4.89,3.16h-0.46c-2.18,0-4.06-1.3-4.89-3.16c-0.28-0.64-0.44-1.35-0.45-2.1V21.1v-7.74h11.14v7.74v0.03
				C26.56,21.88,26.4,22.59,26.12,23.23z M32.35,14.08c0.03-0.62-0.2-1.23-0.63-1.68c-0.43-0.45-1.04-0.71-1.66-0.71H11.94
				c-0.62,0-1.23,0.26-1.66,0.71c-0.43,0.45-0.66,1.06-0.63,1.68c0.09,1.72,0.52,3.29,1.26,4.66c0.6,1.12,1.41,2.1,2.4,2.93
				c0.17,0.14,0.34,0.27,0.51,0.39c0.08,0.6,0.24,1.18,0.48,1.75c0.36,0.83,0.86,1.57,1.51,2.21c0.64,0.64,1.39,1.14,2.23,1.49
				c0.68,0.29,1.39,0.46,2.12,0.52v1.64c-0.74,0.11-1.44,0.38-2.01,0.78c-0.95,0.66-1.49,1.64-1.49,2.68v1.67h8.68v-1.67
				c0-1.04-0.54-2.02-1.49-2.68c-0.57-0.4-1.27-0.67-2.01-0.78v-1.64c0.73-0.06,1.44-0.23,2.12-0.52c0.84-0.35,1.59-0.85,2.23-1.49
				c0.65-0.64,1.15-1.38,1.51-2.21c0.24-0.57,0.4-1.15,0.48-1.75c0.17-0.12,0.34-0.25,0.51-0.39c0.99-0.83,1.8-1.81,2.4-2.93
				C31.83,17.37,32.26,15.8,32.35,14.08z"/>
			<path fill-rule="evenodd" clip-rule="evenodd" fill="none" d="M30.67,13.99c-0.15,2.75-1.23,4.59-2.42,5.81v-6.44h1.81
				C30.41,13.36,30.69,13.64,30.67,13.99z M23.66,33.13h-5.32c0-0.96,1.04-1.75,2.37-1.85h0.58C22.62,31.38,23.66,32.17,23.66,33.13
				z M11.33,13.99c-0.02-0.35,0.26-0.63,0.61-0.63h1.81v6.44C12.56,18.58,11.48,16.74,11.33,13.99z M26.12,23.23
				c-0.83,1.86-2.71,3.16-4.89,3.16h-0.46c-2.18,0-4.06-1.3-4.89-3.16c-0.28-0.64-0.44-1.35-0.45-2.1V21.1v-7.74h11.14v7.74v0.03
				C26.56,21.88,26.4,22.59,26.12,23.23z M32.35,14.08c0.03-0.62-0.2-1.23-0.63-1.68c-0.43-0.45-1.04-0.71-1.66-0.71H11.94
				c-0.62,0-1.23,0.26-1.66,0.71c-0.43,0.45-0.66,1.06-0.63,1.68c0.09,1.72,0.52,3.29,1.26,4.66c0.6,1.12,1.41,2.1,2.4,2.93
				c0.17,0.14,0.34,0.27,0.51,0.39c0.08,0.6,0.24,1.18,0.48,1.75c0.36,0.83,0.86,1.57,1.51,2.21c0.64,0.64,1.39,1.14,2.23,1.49
				c0.68,0.29,1.39,0.46,2.12,0.52v1.64c-0.74,0.11-1.44,0.38-2.01,0.78c-0.95,0.66-1.49,1.64-1.49,2.68v1.67h8.68v-1.67
				c0-1.04-0.54-2.02-1.49-2.68c-0.57-0.4-1.27-0.67-2.01-0.78v-1.64c0.73-0.06,1.44-0.23,2.12-0.52c0.84-0.35,1.59-0.85,2.23-1.49
				c0.65-0.64,1.15-1.38,1.51-2.21c0.24-0.57,0.4-1.15,0.48-1.75c0.17-0.12,0.34-0.25,0.51-0.39c0.99-0.83,1.8-1.81,2.4-2.93
				C31.83,17.37,32.26,15.8,32.35,14.08z"/>
		</g>
	</g>
</g>
</svg>
