<?xml version="1.0" encoding="utf-8"?>
<!-- Generator: Adobe Illustrator 16.0.0, SVG Export Plug-In . SVG Version: 6.00 Build 0)  -->
<!DOCTYPE svg PUBLIC "-//W3C//DTD SVG 1.1//EN" "http://www.w3.org/Graphics/SVG/1.1/DTD/svg11.dtd">
<svg version="1.1" id="Layer_1" xmlns="http://www.w3.org/2000/svg" xmlns:xlink="http://www.w3.org/1999/xlink" x="0px" y="0px"
	 width="70px" height="69.14px" viewBox="0 0 70 69.14" enable-background="new 0 0 70 69.14" xml:space="preserve">
<g>
	<g>
		<path fill-rule="evenodd" clip-rule="evenodd" fill="#AEB2BE" d="M35.34,37.03c6.23,0,11.28-5.73,11.28-12.8
			c0-9.81-5.05-12.8-11.28-12.8s-11.28,2.99-11.28,12.8C24.06,31.3,29.11,37.03,35.34,37.03z"/>
		<path fill-rule="evenodd" clip-rule="evenodd" fill="#AEB2BE" d="M60.24,55.88l-5.69-12.43c-0.26-0.57-0.72-1.05-1.29-1.33
			l-8.82-4.46c-0.2-0.1-0.43-0.08-0.61,0.05c-2.5,1.83-5.43,2.8-8.49,2.8s-5.99-0.97-8.49-2.8c-0.18-0.13-0.41-0.15-0.61-0.05
			l-8.82,4.46c-0.57,0.28-1.03,0.76-1.29,1.33l-5.69,12.43c-0.39,0.85,9.31,8.6,9.84,9.38C20.81,66.05,35.3,68,36.27,68l12.44-2.95
			c0.97,0,10.79-5.76,11.31-6.55C60.55,57.72,60.63,56.73,60.24,55.88z"/>
	</g>
</g>
<path fill-rule="evenodd" clip-rule="evenodd" fill="#AEB2BE" d="M0,34.57C0,15.48,15.67,0,35,0s35,15.48,35,34.57
	c0,19.09-15.67,34.57-35,34.57S0,53.66,0,34.57z M2,34.5C2,16.55,16.77,2,35,2s33,14.55,33,32.5S53.23,67,35,67S2,52.45,2,34.5z"/>
</svg>
