<?xml version="1.0" encoding="utf-8"?>
<!-- Generator: Adobe Illustrator 16.0.0, SVG Export Plug-In . SVG Version: 6.00 Build 0)  -->
<!DOCTYPE svg PUBLIC "-//W3C//DTD SVG 1.1//EN" "http://www.w3.org/Graphics/SVG/1.1/DTD/svg11.dtd">
<svg version="1.1" id="Layer_1" xmlns="http://www.w3.org/2000/svg" xmlns:xlink="http://www.w3.org/1999/xlink" x="0px" y="0px"
	 width="42.455px" height="43.52px" viewBox="0 0 42.455 43.52" enable-background="new 0 0 42.455 43.52" xml:space="preserve">
<g>
	<path fill="#A4CE39" d="M15.053,6.342c0-3.503,2.84-6.342,6.343-6.342s6.342,2.839,6.342,6.342s-2.839,6.342-6.342,6.342
		S15.053,9.845,15.053,6.342"/>
	<path fill="#FFFFFF" d="M24.805,3.77c-0.141-0.084-0.3-0.129-0.46-0.129c-0.489,0-0.882,0.379-0.892,0.864L23.436,5.29
		c-0.632-0.029-1.245-0.221-1.78-0.561l-0.326-0.207c-0.086-0.046-0.169-0.068-0.179-0.071c-0.347-0.113-0.69,0.027-0.82,0.348
		l-0.771,1.913c-0.03,0.074-0.079,0.257-0.08,0.388c-0.007,0.722-0.374,1.392-0.982,1.79l-0.218,0.144
		c-0.193,0.127-0.245,0.385-0.118,0.577c0.129,0.191,0.39,0.244,0.583,0.117l0.217-0.143c0.631-0.415,1.074-1.04,1.26-1.75
		c0.603,0.458,1.119,1.008,1.541,1.641l0.098,0.148c0.081,0.121,0.215,0.187,0.351,0.187c0.08,0,0.16-0.022,0.231-0.069
		c0.194-0.126,0.247-0.385,0.12-0.576l-0.099-0.148c-0.474-0.712-1.054-1.33-1.732-1.845l0.299-0.74
		c0.487,0.376,1.04,0.67,1.625,0.863l0.132,0.044c0.044,0.015,0.089,0.021,0.133,0.021c0.176,0,0.34-0.11,0.399-0.285
		c0.045-0.133,0.018-0.268-0.06-0.373l0.349-0.565h0.074c0.233,0,0.42-0.192,0.42-0.421c0-0.017-0.001-0.036-0.002-0.051
		l0.671-0.367c0.282-0.154,0.455-0.437,0.462-0.754C25.241,4.225,25.08,3.935,24.805,3.77 M21.389,5.542
		c0.537,0.305,1.129,0.496,1.743,0.56l-0.241,0.394c-0.562-0.189-1.086-0.489-1.535-0.875L21.389,5.542z M24.569,4.932L23.856,5.32
		l0.018-0.807c0.006-0.286,0.245-0.457,0.471-0.457c0.085,0,0.167,0.023,0.242,0.069c0.146,0.087,0.23,0.239,0.227,0.408
		S24.719,4.851,24.569,4.932 M20.815,3.391c0-0.421,0.345-0.763,0.77-0.763c0.426,0,0.771,0.342,0.771,0.763
		c0,0.421-0.345,0.763-0.771,0.763C21.161,4.153,20.815,3.812,20.815,3.391"/>
	<path fill="#00A3D8" d="M29.771,13.617c0-3.502,2.84-6.342,6.343-6.342c3.502,0,6.342,2.84,6.342,6.342
		c0,3.503-2.84,6.343-6.342,6.343C32.61,19.96,29.771,17.12,29.771,13.617"/>
	<path fill="#FFFFFF" d="M36.864,12.708c-0.547-0.528-1.297-0.8-2.058-0.747h-0.001l-0.007,0.001l-0.004,0.001
		c-0.588,0.042-1.13,0.27-1.563,0.654c-0.048,0.04-0.091,0.081-0.134,0.123c-0.455,0.455-0.731,1.056-0.778,1.693l-0.002,0.004
		c0,0.002-0.002,0.004-0.002,0.007v0.001c0,0.739,0.201,1.474,0.695,2.01c0.027,0.031,0.057,0.06,0.084,0.088
		c0.506,0.506,1.188,0.788,1.899,0.788c0.066,0,0.134-0.001,0.2-0.007h0.001c0.644-0.045,1.248-0.321,1.702-0.775
		c0.049-0.047,0.09-0.091,0.121-0.13c0.39-0.439,0.618-0.98,0.662-1.566c0-0.001,0.002-0.003,0.003-0.004
		c0-0.001,0.003-0.004,0.003-0.006v-0.001c0-0.779-0.228-1.545-0.781-2.098C36.894,12.731,36.877,12.719,36.864,12.708
		 M36.643,12.969c0.007,0.005,0.011,0.011,0.018,0.017c0.446,0.448,0.691,1.052,0.686,1.679c-0.599,0.005-1.183-0.221-1.625-0.636
		c-0.019-0.016-0.036-0.035-0.053-0.051c-0.448-0.449-0.691-1.053-0.685-1.68c0.613-0.004,1.206,0.232,1.646,0.66L36.643,12.969z
		 M33.338,16.301c-0.021-0.02-0.043-0.041-0.068-0.071c-0.401-0.436-0.62-1.015-0.614-1.607c0.626-0.004,1.229,0.241,1.677,0.689
		c0.011,0.011,0.021,0.021,0.031,0.033l0.01,0.011c0.419,0.44,0.647,1.028,0.644,1.633C34.39,16.995,33.784,16.75,33.338,16.301
		 M36.757,16.198c-0.027,0.035-0.059,0.069-0.1,0.108c-0.354,0.354-0.809,0.582-1.299,0.656c-0.001-0.682-0.262-1.341-0.732-1.837
		c-0.017-0.02-0.034-0.039-0.052-0.056c-0.505-0.505-1.186-0.786-1.893-0.789c0.075-0.488,0.305-0.943,0.656-1.295
		c0.036-0.036,0.071-0.069,0.115-0.105c0.337-0.299,0.745-0.489,1.188-0.555c0,0.708,0.279,1.39,0.784,1.896
		c0.022,0.022,0.044,0.043,0.064,0.062c0.496,0.465,1.153,0.725,1.829,0.726C37.251,15.449,37.061,15.856,36.757,16.198"/>
	<path fill="#FFFFFF" d="M36.333,11.255c0.043,0,0.087-0.016,0.12-0.05l0.776-0.775c0.067-0.067,0.067-0.176,0-0.243
		c-0.066-0.067-0.176-0.067-0.242,0l-0.776,0.776c-0.066,0.067-0.066,0.175,0,0.242C36.244,11.239,36.288,11.255,36.333,11.255"/>
	<path fill="#FFFFFF" d="M37.081,12.075c0.034,0.034,0.077,0.05,0.12,0.05c0.045,0,0.089-0.016,0.123-0.05l0.874-0.875
		c0.067-0.067,0.067-0.175,0-0.242c-0.066-0.067-0.175-0.067-0.242,0l-0.875,0.875C37.015,11.899,37.015,12.008,37.081,12.075"/>
	<path fill="#FFFFFF" d="M38.499,10.829c0.044,0,0.088-0.017,0.122-0.051l0.378-0.377c0.066-0.067,0.066-0.176,0-0.242
		c-0.066-0.067-0.176-0.067-0.242,0l-0.378,0.378c-0.067,0.067-0.067,0.176,0,0.242C38.412,10.812,38.456,10.829,38.499,10.829"/>
	<path fill="#FFFFFF" d="M40.681,10.218c-0.066-0.067-0.176-0.067-0.242,0l-2.486,2.485c-0.067,0.067-0.067,0.176,0,0.243
		c0.033,0.034,0.077,0.05,0.121,0.05s0.087-0.016,0.121-0.05l2.486-2.486C40.748,10.393,40.748,10.284,40.681,10.218"/>
	<path fill="#FAA54F" d="M0,29.242C0,25.739,2.84,22.9,6.342,22.9c3.503,0,6.342,2.839,6.342,6.342s-2.839,6.342-6.342,6.342
		C2.84,35.584,0,32.745,0,29.242"/>
	<path fill="#FFFFFF" d="M9.769,27.151c0.01-0.187-0.059-0.372-0.188-0.507c-0.13-0.136-0.313-0.214-0.502-0.214H3.606
		c-0.188,0-0.371,0.078-0.502,0.214c-0.129,0.136-0.198,0.321-0.188,0.507c0.027,0.521,0.155,0.994,0.378,1.41
		c0.182,0.337,0.426,0.634,0.726,0.883c0.051,0.042,0.102,0.082,0.152,0.119c0.025,0.181,0.074,0.358,0.147,0.528
		c0.107,0.25,0.26,0.475,0.455,0.667c0.195,0.193,0.421,0.345,0.674,0.451c0.205,0.085,0.419,0.138,0.641,0.157v0.494
		c-0.225,0.035-0.435,0.116-0.607,0.236c-0.287,0.2-0.451,0.496-0.451,0.809v0.504h2.623v-0.504c0-0.313-0.165-0.609-0.451-0.809
		c-0.172-0.121-0.382-0.202-0.607-0.236v-0.494c0.221-0.019,0.436-0.071,0.641-0.157c0.252-0.106,0.479-0.258,0.674-0.451
		c0.195-0.193,0.348-0.417,0.455-0.667c0.072-0.17,0.122-0.347,0.147-0.528c0.05-0.037,0.102-0.076,0.152-0.119
		c0.3-0.249,0.544-0.545,0.726-0.883C9.614,28.145,9.742,27.671,9.769,27.151 M7.887,29.916c-0.25,0.563-0.817,0.955-1.477,0.955
		H6.274c-0.66,0-1.227-0.392-1.477-0.955c-0.087-0.194-0.136-0.409-0.137-0.635l-0.001-0.01v-2.337h3.365v2.337l-0.001,0.01
		C8.023,29.507,7.974,29.722,7.887,29.916 M3.423,27.125c-0.005-0.104,0.079-0.191,0.183-0.191h0.546v1.945
		C3.792,28.512,3.467,27.954,3.423,27.125 M7.146,32.905H5.539c0-0.29,0.314-0.528,0.716-0.559h0.174
		C6.832,32.377,7.146,32.615,7.146,32.905 M9.262,27.125c-0.043,0.83-0.369,1.387-0.729,1.754v-1.945h0.546
		C9.183,26.934,9.267,27.021,9.262,27.125"/>
	<path fill="#9EACB5" d="M29.771,29.213c0-3.503,2.84-6.342,6.343-6.342c3.502,0,6.342,2.839,6.342,6.342
		c0,3.502-2.84,6.342-6.342,6.342C32.61,35.556,29.771,32.716,29.771,29.213"/>
</g>
<path fill="#FFFFFF" d="M39.54,26.401v4.224h-0.688v0.674h-1.461L36.4,32.296v-0.017l-0.688,0.69v-1.671h-2.493v-4.223h0.688v-0.675
	H39.54z M38.576,27.353h-5.08v3.667h2.493v1.277l0.41-0.412l0.14-0.14l0.721-0.725h1.314v-3.667H38.576z M39.263,26.679h-5.079
	v0.397h4.668v3.271h0.409L39.263,26.679z"/>
<g>
	<path fill="#D86F27" d="M0.115,13.603c0-3.495,2.839-6.328,6.342-6.328c3.502,0,6.342,2.833,6.342,6.328s-2.84,6.328-6.342,6.328
		C2.955,19.931,0.115,17.098,0.115,13.603"/>
	<path fill="#FFFFFF" d="M4.13,19.356l2.459-1.529c1.366-0.851,2.417-1.644,2.338-1.769c-0.077-0.124-1.253,0.468-2.62,1.318
		l-2.458,1.53c-0.741,0.49-0.136,0.329-0.058,0.453C3.868,19.482,3.853,19.582,4.13,19.356"/>
	<path fill="#FFFFFF" d="M9.089,11.813l-5.545,3.459l-0.532-0.852l5.545-3.462L9.089,11.813z M5.847,19.902
		c0.2,0.019,0.404,0.029,0.609,0.029l-2.645-4.233l3.196-1.993l1.462,2.344l-2.955,1.838c-0.117,0.073-0.153,0.229-0.08,0.345
		c0.073,0.118,0.228,0.153,0.346,0.081l2.954-1.837l1.417,2.271c0.137-0.098,0.269-0.201,0.398-0.31l-3.118-4.998l1.922-1.2
		l2.703,4.337c0.093-0.175,0.179-0.355,0.255-0.539l-3.595-5.772l-8.324,5.199c0.051,0.165,0.108,0.326,0.171,0.485l2.021-1.261
		l0.532,0.851l-2.105,1.313c0.086,0.144,0.178,0.284,0.274,0.418l2.097-1.307l1.462,2.339c-0.118,0.073-0.154,0.228-0.081,0.346
		c0.073,0.117,0.229,0.153,0.346,0.08L5.847,19.902z"/>
	<path fill="#A798C9" d="M15.053,37.177c0-3.503,2.84-6.342,6.343-6.342s6.342,2.839,6.342,6.342c0,3.502-2.839,6.342-6.342,6.342
		S15.053,40.68,15.053,37.177"/>
	<path fill="#FFFFFF" d="M25.332,37.943c-0.101-0.06-0.229-0.046-0.352,0.035l-2.269,1.513c-0.063,0.041-0.082,0.13-0.041,0.195
		c0.038,0.068,0.123,0.087,0.186,0.046l2.266-1.513c0.049-0.032,0.074-0.03,0.079-0.027c0.003,0.002,0.019,0.024,0.019,0.084
		c0,0.16-0.112,0.377-0.24,0.464l-2.197,1.464c-0.118,0.079-0.224,0.101-0.295,0.06c-0.068-0.041-0.109-0.146-0.109-0.293
		c0-0.372,0.251-0.85,0.546-1.048l2.503-1.67c0.038-0.024,0.063-0.071,0.063-0.12c0-0.048-0.024-0.095-0.063-0.122l-4.807-3.207
		c-0.046-0.03-0.101-0.03-0.145,0l-2.533,1.689c-0.36,0.242-0.642,0.782-0.642,1.233v0.076c0,0.451,0.281,0.991,0.642,1.23
		l3.767,2.515c0.063,0.041,0.147,0.021,0.186-0.046c0.041-0.065,0.021-0.155-0.041-0.195l-3.767-2.515
		c-0.281-0.185-0.516-0.638-0.516-0.988v-0.076c0-0.351,0.235-0.804,0.516-0.991l2.459-1.64l4.556,3.039l-2.32,1.548
		c-0.379,0.25-0.675,0.817-0.675,1.29c0,0.258,0.09,0.451,0.249,0.543c0.065,0.039,0.136,0.058,0.213,0.058
		c0.112,0,0.232-0.041,0.354-0.123l2.198-1.466c0.207-0.139,0.368-0.448,0.368-0.706C25.49,38.123,25.433,38,25.332,37.943"/>
	<path fill="#FFFFFF" d="M23.667,37.275c0.043,0,0.087-0.022,0.115-0.065c0.038-0.068,0.019-0.155-0.044-0.198l-3.117-2.08
		c-0.065-0.044-0.147-0.022-0.188,0.043c-0.038,0.068-0.019,0.158,0.044,0.198l3.12,2.08C23.618,37.27,23.642,37.275,23.667,37.275"
		/>
	<path fill="#FFFFFF" d="M23.126,37.655c0.046,0,0.09-0.024,0.115-0.068c0.041-0.065,0.021-0.155-0.044-0.195l-1.315-0.875
		c-0.063-0.043-0.147-0.021-0.186,0.043c-0.041,0.068-0.022,0.155,0.041,0.198l1.318,0.875
		C23.077,37.647,23.102,37.655,23.126,37.655"/>
	<path fill="#FFFFFF" d="M21.33,36.893c-0.063-0.041-0.145-0.022-0.186,0.046c-0.038,0.068-0.019,0.155,0.044,0.195l1.327,0.88
		c0.022,0.014,0.046,0.022,0.071,0.022c0.046,0,0.09-0.024,0.115-0.068c0.041-0.068,0.022-0.155-0.041-0.198L21.33,36.893z"/>
	<path fill="#FFFFFF" d="M19.913,35.306l-1.122,0.747c-0.038,0.027-0.063,0.074-0.063,0.123s0.024,0.095,0.065,0.122l1.337,0.88
		c0.022,0.014,0.046,0.022,0.071,0.022c0.024,0,0.052-0.008,0.074-0.022l0.297-0.207c0.063-0.041,0.079-0.13,0.041-0.195
		c-0.041-0.068-0.125-0.086-0.188-0.043L20.2,36.887l-1.081-0.711l0.868-0.579l1.065,0.706l-0.124,0.087
		c-0.063,0.041-0.082,0.131-0.041,0.196c0.041,0.068,0.125,0.087,0.188,0.043l0.3-0.207c0.041-0.027,0.063-0.073,0.063-0.122
		s-0.024-0.092-0.063-0.12l-1.319-0.875C20.014,35.276,19.957,35.276,19.913,35.306"/>
	<path fill="#FFFFFF" d="M22.163,38.348c0.038-0.068,0.019-0.155-0.044-0.198l-1.337-0.88c-0.063-0.043-0.147-0.022-0.186,0.046
		c-0.041,0.065-0.021,0.155,0.044,0.196l1.337,0.882c0.022,0.014,0.046,0.022,0.071,0.022
		C22.091,38.416,22.135,38.392,22.163,38.348"/>
	<path fill="#FFFFFF" d="M18.264,36.518c-0.041,0.068-0.019,0.155,0.044,0.195l3.303,2.175c0.021,0.017,0.046,0.022,0.07,0.022
		c0.044,0,0.088-0.024,0.115-0.068c0.038-0.065,0.019-0.155-0.044-0.195l-3.303-2.176C18.387,36.431,18.303,36.45,18.264,36.518"/>
</g>
</svg>
