<?xml version="1.0" encoding="utf-8"?>
<!-- Generator: Adobe Illustrator 16.0.0, SVG Export Plug-In . SVG Version: 6.00 Build 0)  -->
<!DOCTYPE svg PUBLIC "-//W3C//DTD SVG 1.1//EN" "http://www.w3.org/Graphics/SVG/1.1/DTD/svg11.dtd">
<svg version="1.1" id="Layer_1" xmlns="http://www.w3.org/2000/svg" xmlns:xlink="http://www.w3.org/1999/xlink" x="0px" y="0px"
	 width="42px" height="42px" viewBox="0 0 42 42" enable-background="new 0 0 42 42" xml:space="preserve">
<g>
	<circle fill-rule="evenodd" clip-rule="evenodd" fill="#FF4000" cx="21" cy="21" r="21"/>
</g>
<g>
	<g>
		<g>
			<path fill-rule="evenodd" clip-rule="evenodd" fill="#FFFFFF" d="M31.23,11.02h-2.3c-0.42,0-0.77,0.34-0.77,0.76
				c0,0.42,0.35,0.76,0.77,0.76h1.54v16.94H11.53V12.54h2.05c0.42,0,0.77-0.34,0.77-0.76c0-0.42-0.35-0.76-0.77-0.76h-2.81
				c-0.42,0-0.77,0.34-0.77,0.76v18.46c0,0.42,0.35,0.76,0.77,0.76h20.46c0.42,0,0.77-0.34,0.77-0.76V11.78
				C32,11.36,31.65,11.02,31.23,11.02z"/>
		</g>
	</g>
	<path fill-rule="evenodd" clip-rule="evenodd" fill="#FFFFFF" d="M22.02,11.02h-2.17c-0.42,0-0.77,0.34-0.77,0.76
		c0,0.42,0.35,0.76,0.77,0.76h2.17c0.43,0,0.77-0.34,0.77-0.76C22.79,11.36,22.45,11.02,22.02,11.02z"/>
	<path fill-rule="evenodd" clip-rule="evenodd" fill="#FFFFFF" d="M16.4,24.68h-1.8c-0.42,0-0.76,0.34-0.76,0.76v1.26
		c0,0.42,0.34,0.76,0.76,0.76h1.8c0.42,0,0.76-0.34,0.76-0.76v-1.26C17.16,25.02,16.82,24.68,16.4,24.68z"/>
	<path fill-rule="evenodd" clip-rule="evenodd" fill="#FFFFFF" d="M21.9,24.68h-1.92c-0.43,0-0.77,0.34-0.77,0.76v1.26
		c0,0.42,0.34,0.76,0.77,0.76h1.92c0.42,0,0.76-0.34,0.76-0.76v-1.26C22.66,25.02,22.32,24.68,21.9,24.68z"/>
	<path fill-rule="evenodd" clip-rule="evenodd" fill="#FFFFFF" d="M17.16,21.26c0-0.41-0.34-0.75-0.76-0.75h-1.8
		c-0.42,0-0.76,0.34-0.76,0.75v1.27c0,0.42,0.34,0.76,0.76,0.76h1.8c0.42,0,0.76-0.34,0.76-0.76V21.26z"/>
	<path fill-rule="evenodd" clip-rule="evenodd" fill="#FFFFFF" d="M22.66,21.26c0-0.41-0.34-0.75-0.76-0.75h-1.92
		c-0.43,0-0.77,0.34-0.77,0.75v1.27c0,0.42,0.34,0.76,0.77,0.76h1.92c0.42,0,0.76-0.34,0.76-0.76V21.26z"/>
	<path fill-rule="evenodd" clip-rule="evenodd" fill="#FFFFFF" d="M27.27,20.51h-1.79c-0.43,0-0.77,0.34-0.77,0.75v1.27
		c0,0.42,0.34,0.76,0.77,0.76h1.79c0.42,0,0.76-0.34,0.76-0.76v-1.27C28.03,20.85,27.69,20.51,27.27,20.51z"/>
	<path fill-rule="evenodd" clip-rule="evenodd" fill="#FFFFFF" d="M13.84,16.97v1.26c0,0.42,0.34,0.76,0.76,0.76h1.8
		c0.42,0,0.76-0.34,0.76-0.76v-1.26c0-0.42-0.34-0.76-0.76-0.76h-1.8C14.18,16.21,13.84,16.55,13.84,16.97z"/>
	<path fill-rule="evenodd" clip-rule="evenodd" fill="#FFFFFF" d="M22.66,16.97c0-0.42-0.34-0.76-0.76-0.76h-1.92
		c-0.43,0-0.77,0.34-0.77,0.76v1.26c0,0.42,0.34,0.76,0.77,0.76h1.92c0.42,0,0.76-0.34,0.76-0.76V16.97z"/>
	<path fill-rule="evenodd" clip-rule="evenodd" fill="#FFFFFF" d="M28.03,16.97c0-0.42-0.34-0.76-0.76-0.76h-1.79
		c-0.43,0-0.77,0.34-0.77,0.76v1.26c0,0.42,0.34,0.76,0.77,0.76h1.79c0.42,0,0.76-0.34,0.76-0.76V16.97z"/>
	<path fill-rule="evenodd" clip-rule="evenodd" fill="#FFFFFF" d="M16.91,14.06c0.42,0,0.76-0.34,0.76-0.76V9.76
		c0-0.42-0.34-0.76-0.76-0.76h-0.77c-0.42,0-0.77,0.34-0.77,0.76v3.54c0,0.42,0.35,0.76,0.77,0.76H16.91z"/>
	<path fill-rule="evenodd" clip-rule="evenodd" fill="#FFFFFF" d="M25.73,9h-0.76c-0.43,0-0.77,0.34-0.77,0.76v3.54
		c0,0.42,0.34,0.76,0.77,0.76h0.76c0.42,0,0.77-0.34,0.77-0.76V9.76C26.5,9.34,26.15,9,25.73,9z"/>
</g>
</svg>
