<?xml version="1.0" encoding="utf-8"?>
<!-- Generator: Adobe Illustrator 16.0.0, SVG Export Plug-In . SVG Version: 6.00 Build 0)  -->
<!DOCTYPE svg PUBLIC "-//W3C//DTD SVG 1.1//EN" "http://www.w3.org/Graphics/SVG/1.1/DTD/svg11.dtd">
<svg version="1.1" id="Layer_1" xmlns="http://www.w3.org/2000/svg" xmlns:xlink="http://www.w3.org/1999/xlink" x="0px" y="0px"
	 width="42px" height="42px" viewBox="0 0 42 42" enable-background="new 0 0 42 42" xml:space="preserve">
<g>
	<circle fill-rule="evenodd" clip-rule="evenodd" fill="#00B2B2" cx="21" cy="21" r="21"/>
</g>
<g>
	<g>
		<path fill-rule="evenodd" clip-rule="evenodd" fill="#FFFFFF" d="M29.4,22H14.6l-1.96-8.5h18.67L29.4,22z M32.84,12.28
			C32.69,12.1,32.48,12,32.25,12H12.29l-0.56-2.42C11.65,9.24,11.35,9,11,9H7.75C7.34,9,7,9.34,7,9.75s0.34,0.75,0.75,0.75h2.65
			l3.79,16.42c0.08,0.34,0.38,0.58,0.73,0.58h15.03c0.41,0,0.75-0.34,0.75-0.75S30.36,26,29.95,26H15.52l-0.58-2.5H30
			c0.35,0,0.65-0.24,0.73-0.59l2.25-10C33.03,12.69,32.98,12.46,32.84,12.28z"/>
	</g>
	<g>
		<path fill-rule="evenodd" clip-rule="evenodd" fill="#FFFFFF" d="M18,32.5c-0.69,0-1.25-0.56-1.25-1.25S17.31,30,18,30
			s1.25,0.56,1.25,1.25S18.69,32.5,18,32.5z M18,28.5c-1.52,0-2.75,1.23-2.75,2.75S16.48,34,18,34s2.75-1.23,2.75-2.75
			S19.52,28.5,18,28.5z"/>
	</g>
	<g>
		<g>
			<path fill-rule="evenodd" clip-rule="evenodd" fill="#FFFFFF" d="M27,32.5c-0.69,0-1.25-0.56-1.25-1.25S26.31,30,27,30
				s1.25,0.56,1.25,1.25S27.69,32.5,27,32.5z M27,28.5c-1.52,0-2.75,1.23-2.75,2.75S25.48,34,27,34s2.75-1.23,2.75-2.75
				S28.52,28.5,27,28.5z"/>
		</g>
	</g>
</g>
</svg>
